<svg width="1097" height="155" viewBox="0 0 1097 155" fill="none" xmlns="http://www.w3.org/2000/svg">
<mask id="path-1-inside-1_188_5968" fill="white">
<path d="M951.297 141.052C917.559 138.897 884.252 140.296 850.961 139.993C817.669 139.691 191.644 139.85 158.413 139.903C155.088 139.903 154.277 138.716 154.52 135.707C155.345 125.623 152.452 116.945 143.915 110.912C136.34 105.507 127.947 104.812 119.562 108.879C111.04 113.014 106.563 120.142 105.927 129.569C105.722 132.683 105.927 135.821 105.927 138.95C105.545 139.157 105.134 139.305 104.707 139.389C87.6867 138.897 70.6205 138.867 53.6604 137.695C43.4116 136.992 33.2764 134.566 23.1033 132.835C18.7554 132.079 14.4377 131.171 10.1049 130.332C2.81785 128.919 0 125.487 0 117.927C0 112.016 0 106.097 0.507516 100.186V115.66C2.99965 115.66 5.42361 116.045 7.62032 115.508C8.8323 115.221 10.4382 113.445 10.5215 112.243C10.8624 107.495 10.6654 102.718 10.6654 97.5019H0.757487C0.757487 91.9004 0.409043 86.7525 0.757487 81.6423C1.89372 65.9692 3.18902 50.2961 4.64339 34.6229C4.95396 31.3043 6.39319 28.0991 7.27187 24.7957C8.15056 21.4922 10.1427 18.8994 10.5518 15.2331C10.8472 12.5495 14.3392 9.70714 17.0738 7.92312C23.0579 4.00736 29.6783 4.53652 36.4124 6.22982C40.9917 7.50356 45.7055 8.2343 50.4562 8.40693C83.5205 8.62615 116.592 8.543 149.687 8.61859C194.939 8.72442 833.145 8.86805 878.389 9.04192C881.753 9.04192 884.449 8.89829 886.411 5.22442C888.63 0.976041 893.228 0.378849 897.629 0.341052C908.106 0.257899 918.582 0.227661 929.058 0.189864C950.646 0.11427 972.234 -0.0520363 993.815 0.0159983C1009.9 0.0613547 1025.76 1.82269 1041.17 6.81945C1049.97 9.72458 1057.65 15.288 1063.14 22.7395C1066.61 27.3583 1069.67 29.0365 1074.81 28.5754C1075.7 28.5701 1076.58 28.6435 1077.45 28.7946C1089.65 29.9361 1094.87 35.2201 1095.78 47.3605C1095.95 49.7417 1096.2 52.2136 1095.78 54.5117C1095.51 55.8724 1093.93 56.976 1092.95 58.1931C1092.13 57.1801 1090.67 56.2277 1090.6 55.1693C1090.2 50.6791 1090.66 46.0981 1089.84 41.6758C1089.5 39.8842 1086.9 37.556 1084.99 37.1855C1079.52 36.1197 1073.87 35.9382 1067.37 35.3184C1073.28 52.3573 1075.62 68.9577 1076.36 86.1251L1081.4 86.624C1081.67 93.4274 1082.2 100.299 1082.15 107.178C1082.15 111.956 1081.17 116.718 1080.84 121.495C1080.77 124.045 1080.84 126.597 1081.07 129.138C1081.36 134.157 1079.4 137.453 1074.39 139.003C1071.5 139.886 1068.5 140.344 1065.47 140.364C1050.07 140.583 1034.67 140.613 1019.27 140.681C1013.21 140.681 1007.2 140.681 1000.5 140.681C1000.5 137.718 1000.64 133.878 1000.5 130.03C1000.2 124.58 998.132 119.375 994.604 115.204C991.075 111.033 986.28 108.125 980.945 106.921C970.219 104.653 958.797 109.945 954.183 120.059C952.555 123.612 952.017 127.755 951.472 131.693C950.956 134.732 951.297 137.907 951.297 141.052ZM58.94 61.3756C69.6585 61.3756 80.3769 61.3302 91.0878 61.3756C93.5345 61.3756 94.7692 60.8994 94.7389 58.0797C94.6278 44.8659 94.6278 31.6546 94.7389 18.4458C94.7389 15.9663 93.8526 15.1877 91.4211 15.1953C70.1105 15.2557 48.8023 15.2557 27.4968 15.1953C26.1149 15.1681 24.747 15.475 23.5098 16.0897C22.2725 16.7044 21.2027 17.6088 20.3915 18.7255C10.2715 31.1531 10.1655 44.7525 19.9295 57.4523C20.864 58.7805 22.126 59.8457 23.5936 60.5449C25.0612 61.2441 26.6848 61.5537 28.3073 61.4436C38.5182 61.2849 48.7291 61.3756 58.94 61.3756ZM996.148 15.611C995.362 15.4585 994.568 15.3475 993.77 15.2784C968.174 15.2784 942.571 15.2784 916.968 15.1953C914.347 15.1953 913.794 16.2989 913.809 18.6046C913.87 31.5689 913.946 44.5408 913.764 57.5052C913.719 60.8086 914.938 61.4361 917.93 61.421C942.405 61.3302 966.879 61.3756 991.353 61.368C992.535 61.368 993.717 61.2169 995.383 61.1035C988.119 45.6823 988.982 30.7374 996.148 15.611ZM725.915 61.368C736.133 61.368 746.367 61.2924 756.578 61.421C759.267 61.421 760.365 60.8616 760.365 57.8907C760.244 44.7979 760.312 31.6974 760.418 18.5819C760.418 16.246 759.873 15.1953 757.275 15.2028C736.323 15.2835 715.365 15.2835 694.403 15.2028C692.131 15.2028 691.328 16.0117 691.373 18.3022C691.449 31.5311 691.464 44.7601 691.373 57.9739C691.373 60.6726 692.313 61.421 694.903 61.3983C705.22 61.3076 715.56 61.368 725.915 61.368ZM651.939 61.368C662.165 61.368 672.391 61.2924 682.609 61.421C685.298 61.421 686.397 60.8616 686.397 57.8907C686.268 44.7979 686.336 31.6974 686.442 18.5819C686.442 16.246 685.904 15.1953 683.299 15.2028C662.357 15.2835 641.412 15.2835 620.465 15.2028C618.193 15.2028 617.39 16.0117 617.435 18.3022C617.511 31.5311 617.511 44.755 617.435 57.9739C617.435 60.6726 618.374 61.421 620.965 61.3983C631.244 61.3076 641.591 61.368 651.939 61.368ZM577.97 61.368C588.196 61.368 598.422 61.2924 608.641 61.421C611.322 61.421 612.428 60.8616 612.428 57.8907C612.307 44.7979 612.375 31.6974 612.481 18.5819C612.481 16.246 611.943 15.1953 609.338 15.2028C588.391 15.2835 567.433 15.2835 546.466 15.2028C544.194 15.2028 543.436 16.0117 543.436 18.3022C543.512 31.5311 543.527 44.7601 543.436 57.9739C543.436 60.6726 544.375 61.421 546.966 61.3983C557.268 61.3076 567.623 61.368 577.962 61.368H577.97ZM504.001 61.368C514.22 61.368 524.454 61.2924 534.664 61.421C537.354 61.421 538.452 60.8616 538.452 57.8907C538.331 44.7979 538.399 31.6974 538.505 18.5819C538.505 16.246 537.96 15.1953 535.361 15.2028C514.409 15.2835 493.452 15.2835 472.49 15.2028C470.218 15.2028 469.415 16.0117 469.46 18.3022C469.536 31.5311 469.551 44.7601 469.46 57.9739C469.46 60.6726 470.399 61.421 472.99 61.3983C483.277 61.3076 493.647 61.368 504.001 61.368ZM430.025 61.368C440.251 61.368 450.477 61.2924 460.696 61.421C463.385 61.421 464.483 60.8616 464.483 57.8907C464.355 44.7979 464.43 31.6974 464.529 18.5819C464.529 16.246 463.991 15.1953 461.385 15.2028C440.438 15.2835 419.481 15.2835 398.514 15.2028C396.241 15.2028 395.438 16.0117 395.484 18.3022C395.56 31.5311 395.56 44.755 395.484 57.9739C395.484 60.6726 396.423 61.421 399.014 61.3983C409.331 61.3076 419.648 61.368 430.025 61.368ZM356.057 61.368C366.283 61.368 376.509 61.2924 386.727 61.421C389.409 61.421 390.515 60.8616 390.515 57.8907C390.394 44.7979 390.462 31.6974 390.568 18.5819C390.568 16.246 390.03 15.1953 387.424 15.2028C366.477 15.2835 345.52 15.2835 324.553 15.2028C322.28 15.2028 321.485 16.0117 321.523 18.3022C321.599 31.5311 321.614 44.7601 321.523 57.9739C321.523 60.6726 322.462 61.421 325.053 61.3983C335.355 61.3076 345.709 61.368 356.057 61.368ZM282.088 61.368C292.307 61.368 302.54 61.2924 312.751 61.421C315.44 61.421 316.539 60.8616 316.539 57.8907C316.417 44.7979 316.486 31.6974 316.592 18.5819C316.592 16.246 316.046 15.1953 313.448 15.2028C292.506 15.2835 271.549 15.2835 250.577 15.2028C248.304 15.2028 247.501 16.0117 247.547 18.3022C247.622 31.5311 247.638 44.7601 247.547 57.9739C247.547 60.6726 248.486 61.421 251.077 61.3983C261.386 61.3076 271.733 61.368 282.088 61.368ZM208.112 61.368C218.338 61.368 228.564 61.2924 238.783 61.421C241.472 61.421 242.57 60.8616 242.57 57.8907C242.441 44.7979 242.517 31.6974 242.615 18.5819C242.615 16.246 242.078 15.1953 239.472 15.2028C218.53 15.2835 197.573 15.2835 176.6 15.2028C174.328 15.2028 173.525 16.0117 173.571 18.3022C173.646 31.5311 173.646 44.755 173.571 57.9739C173.571 60.6726 174.51 61.421 177.1 61.3983C187.417 61.3076 197.765 61.368 208.112 61.368ZM134.143 61.368C144.369 61.368 154.595 61.2924 164.814 61.421C167.495 61.421 168.601 60.8616 168.601 57.8907C168.48 44.7979 168.548 31.6974 168.654 18.5819C168.654 16.246 168.117 15.1953 165.511 15.2028C144.569 15.2835 123.612 15.2835 102.639 15.2028C100.367 15.2028 99.6095 16.0117 99.6095 18.3022C99.6853 31.5311 99.7004 44.7601 99.6095 57.9739C99.6095 60.6726 100.549 61.421 103.139 61.3983C113.441 61.3076 123.796 61.368 134.143 61.368ZM799.739 61.368C810.079 61.368 820.419 61.3302 830.796 61.368C832.978 61.368 834.417 61.1186 834.402 58.3972C834.326 45.0549 834.357 31.7125 834.402 18.3702C834.402 16.2158 833.743 15.1575 831.372 15.165C810.45 15.2305 789.531 15.2305 768.614 15.165C766.001 15.165 765.478 16.2082 765.486 18.5365C765.567 31.7604 765.567 44.9768 765.486 58.1855C765.486 60.7482 766.372 61.3832 768.773 61.3605C779.052 61.3076 789.392 61.368 799.739 61.368ZM873.928 15.2557C863.596 15.2557 853.263 15.3465 842.931 15.1953C840.28 15.1575 839.333 15.9512 839.348 18.597C839.419 31.8108 839.419 45.0221 839.348 58.2309C839.348 60.7709 840.386 61.4058 842.75 61.3983C863.55 61.3328 884.356 61.3328 905.166 61.3983C907.386 61.3983 908.302 60.8011 908.287 58.4199C908.196 45.0851 908.196 31.7529 908.287 18.4231C908.287 15.9361 907.409 15.1953 904.939 15.2255C894.592 15.354 884.26 15.2784 873.928 15.2709V15.2557ZM1051.56 54.0883C1051.56 42.3788 1051.49 30.6542 1051.6 18.9674C1051.6 16.1553 1050.63 15.1197 1047.86 15.1877C1043.83 15.3238 1039.79 15.3087 1035.74 15.1877C1032.93 15.097 1031.99 16.2838 1032 19.0052C1032.07 42.6913 1032.07 66.3572 1032 90.003C1032 92.5959 1032.99 93.6618 1035.56 93.6089C1039.47 93.5182 1043.39 93.3972 1047.29 93.6089C1050.69 93.8054 1051.63 92.4069 1051.6 89.1866C1051.48 77.5149 1051.57 65.8054 1051.56 54.1035V54.0883ZM1027.59 86.6769C1027.86 85.43 1028.06 84.1678 1028.17 82.8972C1028.2 61.3882 1028.22 39.8817 1028.22 18.3778C1028.22 16.1931 1027.46 15.1801 1025.11 15.2557C1021.2 15.3918 1017.27 15.0365 1013.4 15.4296C1011.68 15.6035 1009.45 16.6769 1008.56 18.0527C1002.5 27.4415 999.368 37.9566 1003.5 48.5322C1007.12 57.7547 1012.78 66.2287 1017.99 74.7709C1020.49 78.8605 1024.03 82.3378 1027.59 86.692V86.6769Z"/>
</mask>
<path d="M951.297 141.052C917.559 138.897 884.252 140.296 850.961 139.993C817.669 139.691 191.644 139.85 158.413 139.903C155.088 139.903 154.277 138.716 154.52 135.707C155.345 125.623 152.452 116.945 143.915 110.912C136.34 105.507 127.947 104.812 119.562 108.879C111.04 113.014 106.563 120.142 105.927 129.569C105.722 132.683 105.927 135.821 105.927 138.95C105.545 139.157 105.134 139.305 104.707 139.389C87.6867 138.897 70.6205 138.867 53.6604 137.695C43.4116 136.992 33.2764 134.566 23.1033 132.835C18.7554 132.079 14.4377 131.171 10.1049 130.332C2.81785 128.919 0 125.487 0 117.927C0 112.016 0 106.097 0.507516 100.186V115.66C2.99965 115.66 5.42361 116.045 7.62032 115.508C8.8323 115.221 10.4382 113.445 10.5215 112.243C10.8624 107.495 10.6654 102.718 10.6654 97.5019H0.757487C0.757487 91.9004 0.409043 86.7525 0.757487 81.6423C1.89372 65.9692 3.18902 50.2961 4.64339 34.6229C4.95396 31.3043 6.39319 28.0991 7.27187 24.7957C8.15056 21.4922 10.1427 18.8994 10.5518 15.2331C10.8472 12.5495 14.3392 9.70714 17.0738 7.92312C23.0579 4.00736 29.6783 4.53652 36.4124 6.22982C40.9917 7.50356 45.7055 8.2343 50.4562 8.40693C83.5205 8.62615 116.592 8.543 149.687 8.61859C194.939 8.72442 833.145 8.86805 878.389 9.04192C881.753 9.04192 884.449 8.89829 886.411 5.22442C888.63 0.976041 893.228 0.378849 897.629 0.341052C908.106 0.257899 918.582 0.227661 929.058 0.189864C950.646 0.11427 972.234 -0.0520363 993.815 0.0159983C1009.9 0.0613547 1025.76 1.82269 1041.17 6.81945C1049.97 9.72458 1057.65 15.288 1063.14 22.7395C1066.61 27.3583 1069.67 29.0365 1074.81 28.5754C1075.7 28.5701 1076.58 28.6435 1077.45 28.7946C1089.65 29.9361 1094.87 35.2201 1095.78 47.3605C1095.95 49.7417 1096.2 52.2136 1095.78 54.5117C1095.51 55.8724 1093.93 56.976 1092.95 58.1931C1092.13 57.1801 1090.67 56.2277 1090.6 55.1693C1090.2 50.6791 1090.66 46.0981 1089.84 41.6758C1089.5 39.8842 1086.9 37.556 1084.99 37.1855C1079.52 36.1197 1073.87 35.9382 1067.37 35.3184C1073.28 52.3573 1075.62 68.9577 1076.36 86.1251L1081.4 86.624C1081.67 93.4274 1082.2 100.299 1082.15 107.178C1082.15 111.956 1081.17 116.718 1080.84 121.495C1080.77 124.045 1080.84 126.597 1081.07 129.138C1081.36 134.157 1079.4 137.453 1074.39 139.003C1071.5 139.886 1068.5 140.344 1065.47 140.364C1050.07 140.583 1034.67 140.613 1019.27 140.681C1013.21 140.681 1007.2 140.681 1000.5 140.681C1000.5 137.718 1000.64 133.878 1000.5 130.03C1000.2 124.58 998.132 119.375 994.604 115.204C991.075 111.033 986.28 108.125 980.945 106.921C970.219 104.653 958.797 109.945 954.183 120.059C952.555 123.612 952.017 127.755 951.472 131.693C950.956 134.732 951.297 137.907 951.297 141.052ZM58.94 61.3756C69.6585 61.3756 80.3769 61.3302 91.0878 61.3756C93.5345 61.3756 94.7692 60.8994 94.7389 58.0797C94.6278 44.8659 94.6278 31.6546 94.7389 18.4458C94.7389 15.9663 93.8526 15.1877 91.4211 15.1953C70.1105 15.2557 48.8023 15.2557 27.4968 15.1953C26.1149 15.1681 24.747 15.475 23.5098 16.0897C22.2725 16.7044 21.2027 17.6088 20.3915 18.7255C10.2715 31.1531 10.1655 44.7525 19.9295 57.4523C20.864 58.7805 22.126 59.8457 23.5936 60.5449C25.0612 61.2441 26.6848 61.5537 28.3073 61.4436C38.5182 61.2849 48.7291 61.3756 58.94 61.3756ZM996.148 15.611C995.362 15.4585 994.568 15.3475 993.77 15.2784C968.174 15.2784 942.571 15.2784 916.968 15.1953C914.347 15.1953 913.794 16.2989 913.809 18.6046C913.87 31.5689 913.946 44.5408 913.764 57.5052C913.719 60.8086 914.938 61.4361 917.93 61.421C942.405 61.3302 966.879 61.3756 991.353 61.368C992.535 61.368 993.717 61.2169 995.383 61.1035C988.119 45.6823 988.982 30.7374 996.148 15.611ZM725.915 61.368C736.133 61.368 746.367 61.2924 756.578 61.421C759.267 61.421 760.365 60.8616 760.365 57.8907C760.244 44.7979 760.312 31.6974 760.418 18.5819C760.418 16.246 759.873 15.1953 757.275 15.2028C736.323 15.2835 715.365 15.2835 694.403 15.2028C692.131 15.2028 691.328 16.0117 691.373 18.3022C691.449 31.5311 691.464 44.7601 691.373 57.9739C691.373 60.6726 692.313 61.421 694.903 61.3983C705.22 61.3076 715.56 61.368 725.915 61.368ZM651.939 61.368C662.165 61.368 672.391 61.2924 682.609 61.421C685.298 61.421 686.397 60.8616 686.397 57.8907C686.268 44.7979 686.336 31.6974 686.442 18.5819C686.442 16.246 685.904 15.1953 683.299 15.2028C662.357 15.2835 641.412 15.2835 620.465 15.2028C618.193 15.2028 617.39 16.0117 617.435 18.3022C617.511 31.5311 617.511 44.755 617.435 57.9739C617.435 60.6726 618.374 61.421 620.965 61.3983C631.244 61.3076 641.591 61.368 651.939 61.368ZM577.97 61.368C588.196 61.368 598.422 61.2924 608.641 61.421C611.322 61.421 612.428 60.8616 612.428 57.8907C612.307 44.7979 612.375 31.6974 612.481 18.5819C612.481 16.246 611.943 15.1953 609.338 15.2028C588.391 15.2835 567.433 15.2835 546.466 15.2028C544.194 15.2028 543.436 16.0117 543.436 18.3022C543.512 31.5311 543.527 44.7601 543.436 57.9739C543.436 60.6726 544.375 61.421 546.966 61.3983C557.268 61.3076 567.623 61.368 577.962 61.368H577.97ZM504.001 61.368C514.22 61.368 524.454 61.2924 534.664 61.421C537.354 61.421 538.452 60.8616 538.452 57.8907C538.331 44.7979 538.399 31.6974 538.505 18.5819C538.505 16.246 537.96 15.1953 535.361 15.2028C514.409 15.2835 493.452 15.2835 472.49 15.2028C470.218 15.2028 469.415 16.0117 469.46 18.3022C469.536 31.5311 469.551 44.7601 469.46 57.9739C469.46 60.6726 470.399 61.421 472.99 61.3983C483.277 61.3076 493.647 61.368 504.001 61.368ZM430.025 61.368C440.251 61.368 450.477 61.2924 460.696 61.421C463.385 61.421 464.483 60.8616 464.483 57.8907C464.355 44.7979 464.43 31.6974 464.529 18.5819C464.529 16.246 463.991 15.1953 461.385 15.2028C440.438 15.2835 419.481 15.2835 398.514 15.2028C396.241 15.2028 395.438 16.0117 395.484 18.3022C395.56 31.5311 395.56 44.755 395.484 57.9739C395.484 60.6726 396.423 61.421 399.014 61.3983C409.331 61.3076 419.648 61.368 430.025 61.368ZM356.057 61.368C366.283 61.368 376.509 61.2924 386.727 61.421C389.409 61.421 390.515 60.8616 390.515 57.8907C390.394 44.7979 390.462 31.6974 390.568 18.5819C390.568 16.246 390.03 15.1953 387.424 15.2028C366.477 15.2835 345.52 15.2835 324.553 15.2028C322.28 15.2028 321.485 16.0117 321.523 18.3022C321.599 31.5311 321.614 44.7601 321.523 57.9739C321.523 60.6726 322.462 61.421 325.053 61.3983C335.355 61.3076 345.709 61.368 356.057 61.368ZM282.088 61.368C292.307 61.368 302.54 61.2924 312.751 61.421C315.44 61.421 316.539 60.8616 316.539 57.8907C316.417 44.7979 316.486 31.6974 316.592 18.5819C316.592 16.246 316.046 15.1953 313.448 15.2028C292.506 15.2835 271.549 15.2835 250.577 15.2028C248.304 15.2028 247.501 16.0117 247.547 18.3022C247.622 31.5311 247.638 44.7601 247.547 57.9739C247.547 60.6726 248.486 61.421 251.077 61.3983C261.386 61.3076 271.733 61.368 282.088 61.368ZM208.112 61.368C218.338 61.368 228.564 61.2924 238.783 61.421C241.472 61.421 242.57 60.8616 242.57 57.8907C242.441 44.7979 242.517 31.6974 242.615 18.5819C242.615 16.246 242.078 15.1953 239.472 15.2028C218.53 15.2835 197.573 15.2835 176.6 15.2028C174.328 15.2028 173.525 16.0117 173.571 18.3022C173.646 31.5311 173.646 44.755 173.571 57.9739C173.571 60.6726 174.51 61.421 177.1 61.3983C187.417 61.3076 197.765 61.368 208.112 61.368ZM134.143 61.368C144.369 61.368 154.595 61.2924 164.814 61.421C167.495 61.421 168.601 60.8616 168.601 57.8907C168.48 44.7979 168.548 31.6974 168.654 18.5819C168.654 16.246 168.117 15.1953 165.511 15.2028C144.569 15.2835 123.612 15.2835 102.639 15.2028C100.367 15.2028 99.6095 16.0117 99.6095 18.3022C99.6853 31.5311 99.7004 44.7601 99.6095 57.9739C99.6095 60.6726 100.549 61.421 103.139 61.3983C113.441 61.3076 123.796 61.368 134.143 61.368ZM799.739 61.368C810.079 61.368 820.419 61.3302 830.796 61.368C832.978 61.368 834.417 61.1186 834.402 58.3972C834.326 45.0549 834.357 31.7125 834.402 18.3702C834.402 16.2158 833.743 15.1575 831.372 15.165C810.45 15.2305 789.531 15.2305 768.614 15.165C766.001 15.165 765.478 16.2082 765.486 18.5365C765.567 31.7604 765.567 44.9768 765.486 58.1855C765.486 60.7482 766.372 61.3832 768.773 61.3605C779.052 61.3076 789.392 61.368 799.739 61.368ZM873.928 15.2557C863.596 15.2557 853.263 15.3465 842.931 15.1953C840.28 15.1575 839.333 15.9512 839.348 18.597C839.419 31.8108 839.419 45.0221 839.348 58.2309C839.348 60.7709 840.386 61.4058 842.75 61.3983C863.55 61.3328 884.356 61.3328 905.166 61.3983C907.386 61.3983 908.302 60.8011 908.287 58.4199C908.196 45.0851 908.196 31.7529 908.287 18.4231C908.287 15.9361 907.409 15.1953 904.939 15.2255C894.592 15.354 884.26 15.2784 873.928 15.2709V15.2557ZM1051.56 54.0883C1051.56 42.3788 1051.49 30.6542 1051.6 18.9674C1051.6 16.1553 1050.63 15.1197 1047.86 15.1877C1043.83 15.3238 1039.79 15.3087 1035.74 15.1877C1032.93 15.097 1031.99 16.2838 1032 19.0052C1032.07 42.6913 1032.07 66.3572 1032 90.003C1032 92.5959 1032.99 93.6618 1035.56 93.6089C1039.47 93.5182 1043.39 93.3972 1047.29 93.6089C1050.69 93.8054 1051.63 92.4069 1051.6 89.1866C1051.48 77.5149 1051.57 65.8054 1051.56 54.1035V54.0883ZM1027.59 86.6769C1027.86 85.43 1028.06 84.1678 1028.17 82.8972C1028.2 61.3882 1028.22 39.8817 1028.22 18.3778C1028.22 16.1931 1027.46 15.1801 1025.11 15.2557C1021.2 15.3918 1017.27 15.0365 1013.4 15.4296C1011.68 15.6035 1009.45 16.6769 1008.56 18.0527C1002.5 27.4415 999.368 37.9566 1003.5 48.5322C1007.12 57.7547 1012.78 66.2287 1017.99 74.7709C1020.49 78.8605 1024.03 82.3378 1027.59 86.692V86.6769Z" stroke="#2844DA" stroke-width="6" mask="url(#path-1-inside-1_188_5968)"/>
<path d="M975.684 152.501L975.677 152.501L975.669 152.501C964.19 152.536 954.367 142.68 954.343 131.046C954.374 125.345 956.671 119.89 960.731 115.877C964.791 111.863 970.282 109.622 975.998 109.646C978.818 109.666 981.606 110.241 984.203 111.337C986.801 112.433 989.157 114.028 991.136 116.033C993.116 118.037 994.68 120.411 995.74 123.018C996.8 125.625 997.335 128.415 997.315 131.229C997.294 134.042 996.719 136.824 995.621 139.416C994.523 142.008 992.924 144.358 990.916 146.334C988.907 148.309 986.529 149.871 983.915 150.929C981.302 151.987 978.505 152.521 975.684 152.501ZM962.024 130.844L962.024 130.856L962.023 130.867C961.938 138.351 968.519 145.065 975.976 145.031C979.689 145.015 983.246 143.53 985.865 140.901C988.483 138.272 989.95 134.714 989.945 131.007C989.949 129.174 989.587 127.358 988.881 125.667C988.174 123.974 987.136 122.439 985.828 121.152C984.52 119.865 982.968 118.851 981.263 118.17C979.559 117.489 977.736 117.154 975.901 117.184C972.27 117.231 968.797 118.679 966.21 121.224C963.623 123.77 962.122 127.217 962.024 130.844Z" stroke="#2844DA" stroke-width="3"/>
<path d="M115.91 131.094L115.91 131.068C115.942 127.365 117.441 123.825 120.08 121.223C122.718 118.622 126.281 117.17 129.988 117.183L115.91 131.094ZM115.91 131.094L115.911 131.12M115.91 131.094L115.911 131.12M115.911 131.12C116.006 134.736 117.471 138.181 120.011 140.761C122.55 143.34 125.974 144.863 129.593 145.022L129.623 145.023M115.911 131.12L129.623 145.023M129.623 145.023L129.653 145.023M129.623 145.023L129.653 145.023M129.653 145.023C133.354 145.037 136.913 143.601 139.565 141.023C142.217 138.445 143.749 134.93 143.831 131.235L143.831 131.235M129.653 145.023L143.831 131.235M143.831 131.235L143.831 131.222M143.831 131.235L143.831 131.222M143.831 131.222C143.856 129.389 143.516 127.57 142.832 125.87M143.831 131.222L142.832 125.87M142.832 125.87C142.148 124.17 141.132 122.622 139.844 121.317M142.832 125.87L139.844 121.317M139.844 121.317C138.557 120.011 137.023 118.974 135.331 118.264M139.844 121.317L135.331 118.264M135.331 118.264C133.639 117.555 131.824 117.187 129.989 117.183L135.331 118.264ZM130.03 109.66L130.036 109.66C132.867 109.65 135.672 110.201 138.287 111.283C140.902 112.364 143.276 113.954 145.269 115.959C147.263 117.964 148.837 120.345 149.899 122.963C150.962 125.58 151.492 128.383 151.459 131.207H151.459L151.459 131.218C151.41 142.859 141.583 152.591 130.021 152.485V152.485H130.007C124.315 152.485 118.856 150.229 114.832 146.213C110.808 142.197 108.548 136.751 108.548 131.073C108.548 125.395 110.808 119.949 114.832 115.933C118.856 111.917 124.315 109.66 130.007 109.66L130.03 109.66Z" stroke="#2844DA" stroke-width="3"/>
<path d="M972.307 127.442C973.256 126.44 974.56 125.846 975.94 125.786C977.323 125.829 978.639 126.392 979.624 127.363C980.609 128.334 981.188 129.639 981.248 131.017C981.212 132.337 980.683 133.597 979.764 134.55C978.837 135.511 977.581 136.089 976.246 136.167C975.563 136.199 974.882 136.096 974.24 135.862C973.596 135.628 973.006 135.268 972.503 134.804L971.556 135.829L972.503 134.804C972.001 134.34 971.596 133.78 971.313 133.158C971.031 132.538 970.876 131.868 970.856 131.188C970.828 129.798 971.349 128.453 972.307 127.442Z" stroke="#2844DA" stroke-width="3"/>
<path d="M135.023 131.151L135.023 131.169L135.022 131.186C135.012 131.863 134.866 132.531 134.592 133.151C134.319 133.771 133.924 134.33 133.43 134.795C132.937 135.261 132.355 135.623 131.718 135.861C131.082 136.098 130.404 136.207 129.725 136.179C129.046 136.151 128.379 135.988 127.765 135.7C127.15 135.411 126.599 135.002 126.146 134.498C125.692 133.994 125.344 133.405 125.122 132.765C124.9 132.125 124.809 131.448 124.854 130.772L124.855 130.757L124.855 130.743C124.917 129.418 125.487 128.168 126.448 127.25C127.405 126.337 128.677 125.823 130.002 125.815C130.68 125.832 131.349 125.982 131.969 126.257C132.594 126.534 133.158 126.933 133.627 127.43C134.096 127.927 134.461 128.512 134.701 129.151C134.94 129.79 135.05 130.47 135.023 131.151Z" stroke="#2844DA" stroke-width="3"/>
</svg>
