<svg width="1264" height="178" viewBox="0 0 1264 178" fill="none" xmlns="http://www.w3.org/2000/svg">
<mask id="path-1-inside-1_188_5990" fill="white">
<path d="M1096.25 163.033C1057.37 160.543 1018.99 162.159 980.623 161.809C942.259 161.46 220.845 161.643 182.551 161.705C178.719 161.705 177.785 160.333 178.064 156.855C179.016 145.2 175.681 135.169 165.844 128.196C157.114 121.949 147.443 121.145 137.78 125.846C127.959 130.625 122.801 138.865 122.067 149.76C121.832 153.36 122.067 156.986 122.067 160.604C121.627 160.843 121.153 161.014 120.662 161.11C101.048 160.543 81.3811 160.508 61.8367 159.153C50.0263 158.341 38.3468 155.536 26.6237 153.535C21.6132 152.661 16.6376 151.613 11.6446 150.643C3.24721 149.009 0 145.042 0 136.305C0 129.472 0 122.631 0.584848 115.798V133.684C3.45671 133.684 6.25001 134.129 8.78144 133.509C10.1781 133.177 12.0287 131.123 12.1247 129.734C12.5175 124.247 12.2905 118.725 12.2905 112.696H0.872907C0.872907 106.222 0.47137 100.271 0.872907 94.3648C2.18227 76.2491 3.67494 58.1334 5.35092 40.0177C5.70881 36.182 7.36733 32.4773 8.3799 28.659C9.39248 24.8407 11.6882 21.8437 12.1596 17.6061C12.5 14.5043 16.5241 11.219 19.6753 9.15692C26.5713 4.63091 34.2005 5.24253 41.9606 7.19973C47.2377 8.67197 52.6697 9.51659 58.1443 9.71612C96.2467 9.96951 134.358 9.87339 172.495 9.96077C224.643 10.0831 960.093 10.2491 1012.23 10.4501C1016.11 10.4501 1019.21 10.2841 1021.48 6.03764C1024.03 1.12718 1029.33 0.436914 1034.4 0.393227C1046.48 0.297114 1058.55 0.262165 1070.62 0.218477C1095.5 0.131102 1120.38 -0.0611224 1145.24 0.017515C1163.78 0.0699399 1182.06 2.10577 1199.82 7.88125C1209.96 11.2391 1218.81 17.6696 1225.13 26.2824C1229.13 31.621 1232.66 33.5607 1238.58 33.0277C1239.6 33.0216 1240.62 33.1064 1241.62 33.2811C1255.69 34.6005 1261.7 40.708 1262.75 54.7404C1262.95 57.4927 1263.23 60.3498 1262.75 63.006C1262.43 64.5788 1260.62 65.8544 1259.48 67.2612C1258.54 66.0904 1256.86 64.9894 1256.78 63.7662C1256.31 58.5761 1256.85 53.2812 1255.9 48.1698C1255.51 46.099 1252.52 43.4079 1250.32 42.9797C1244.01 41.7477 1237.49 41.538 1230.01 40.8216C1236.82 60.5158 1239.51 79.7034 1240.37 99.5462L1246.17 100.123C1246.48 107.987 1247.1 115.929 1247.04 123.88C1247.04 129.402 1245.91 134.907 1245.53 140.429C1245.45 143.376 1245.53 146.326 1245.8 149.262C1246.13 155.064 1243.87 158.874 1238.1 160.665C1234.77 161.685 1231.3 162.215 1227.82 162.238C1210.08 162.491 1192.33 162.526 1174.57 162.605C1167.59 162.605 1160.67 162.605 1152.94 162.605C1152.94 159.18 1153.11 154.741 1152.94 150.293C1152.6 143.994 1150.22 137.977 1146.15 133.157C1142.09 128.336 1136.56 124.975 1130.41 123.583C1118.05 120.962 1104.89 127.078 1099.57 138.769C1097.7 142.875 1097.08 147.663 1096.45 152.216C1095.86 155.728 1096.25 159.398 1096.25 163.033ZM67.9209 70.9397C80.2725 70.9397 92.6241 70.8872 104.967 70.9397C107.787 70.9397 109.209 70.3892 109.174 67.1301C109.046 51.857 109.046 36.5868 109.174 21.3195C109.174 18.4536 108.153 17.5536 105.351 17.5624C80.7933 17.6323 56.2385 17.6323 31.6865 17.5624C30.0941 17.531 28.5178 17.8857 27.092 18.5962C25.6663 19.3067 24.4334 20.352 23.4986 21.6428C11.8366 36.0072 11.7144 51.7259 22.9662 66.4049C24.0431 67.9402 25.4974 69.1714 27.1886 69.9795C28.8799 70.7877 30.7508 71.1455 32.6205 71.0183C44.3873 70.8348 56.1541 70.9397 67.9209 70.9397ZM1147.93 18.0429C1147.03 17.8666 1146.11 17.7383 1145.19 17.6585C1115.7 17.6585 1086.19 17.6585 1056.69 17.5624C1053.67 17.5624 1053.03 18.8381 1053.05 21.503C1053.12 36.4878 1053.21 51.4813 1053 66.4661C1052.94 70.2843 1054.35 71.0096 1057.8 70.9921C1086 70.8872 1114.2 70.9397 1142.41 70.9309C1143.77 70.9309 1145.13 70.7562 1147.05 70.6251C1138.68 52.8006 1139.68 35.5266 1147.93 18.0429ZM836.524 70.9309C848.299 70.9309 860.092 70.8435 871.859 70.9921C874.958 70.9921 876.224 70.3455 876.224 66.9117C876.084 51.7784 876.163 36.6363 876.285 21.4768C876.285 18.7769 875.656 17.5624 872.662 17.5711C848.518 17.6643 824.367 17.6643 800.211 17.5711C797.592 17.5711 796.667 18.506 796.719 21.1535C796.807 36.4441 796.824 51.7347 796.719 67.0078C796.719 70.1271 797.802 70.9921 800.787 70.9659C812.676 70.861 824.591 70.9309 836.524 70.9309ZM751.276 70.9309C763.06 70.9309 774.844 70.8435 786.62 70.9921C789.719 70.9921 790.984 70.3455 790.984 66.9117C790.836 51.7784 790.915 36.6363 791.037 21.4768C791.037 18.7769 790.417 17.5624 787.414 17.5711C763.281 17.6643 739.145 17.6643 715.007 17.5711C712.388 17.5711 711.463 18.506 711.515 21.1535C711.602 36.4441 711.602 51.7288 711.515 67.0078C711.515 70.1271 712.597 70.9921 715.583 70.9659C727.428 70.861 739.352 70.9309 751.276 70.9309ZM666.037 70.9309C677.821 70.9309 689.605 70.8435 701.381 70.9921C704.471 70.9921 705.745 70.3455 705.745 66.9117C705.605 51.7784 705.684 36.6363 705.806 21.4768C705.806 18.7769 705.186 17.5624 702.184 17.5711C678.045 17.6643 653.894 17.6643 629.732 17.5711C627.114 17.5711 626.241 18.506 626.241 21.1535C626.328 36.4441 626.346 51.7347 626.241 67.0078C626.241 70.1271 627.323 70.9921 630.309 70.9659C642.18 70.861 654.113 70.9309 666.028 70.9309H666.037ZM580.797 70.9309C592.573 70.9309 604.366 70.8435 616.133 70.9921C619.231 70.9921 620.497 70.3455 620.497 66.9117C620.357 51.7784 620.436 36.6363 620.558 21.4768C620.558 18.7769 619.93 17.5624 616.936 17.5711C592.791 17.6643 568.641 17.6643 544.484 17.5711C541.866 17.5711 540.94 18.506 540.993 21.1535C541.08 36.4441 541.097 51.7347 540.993 67.0078C540.993 70.1271 542.075 70.9921 545.06 70.9659C556.914 70.861 568.865 70.9309 580.797 70.9309ZM495.549 70.9309C507.333 70.9309 519.118 70.8435 530.893 70.9921C533.992 70.9921 535.258 70.3455 535.258 66.9117C535.109 51.7784 535.197 36.6363 535.31 21.4768C535.31 18.7769 534.69 17.5624 531.688 17.5711C507.549 17.6643 483.398 17.6643 459.236 17.5711C456.617 17.5711 455.692 18.506 455.745 21.1535C455.832 36.4441 455.832 51.7288 455.745 67.0078C455.745 70.1271 456.827 70.9921 459.812 70.9659C471.701 70.861 483.59 70.9309 495.549 70.9309ZM410.31 70.9309C422.094 70.9309 433.878 70.8435 445.654 70.9921C448.744 70.9921 450.018 70.3455 450.018 66.9117C449.879 51.7784 449.957 36.6363 450.079 21.4768C450.079 18.7769 449.46 17.5624 446.457 17.5711C422.318 17.6643 398.168 17.6643 374.006 17.5711C371.387 17.5711 370.47 18.506 370.514 21.1535C370.601 36.4441 370.619 51.7347 370.514 67.0078C370.514 70.1271 371.596 70.9921 374.582 70.9659C386.453 70.861 398.386 70.9309 410.31 70.9309ZM325.07 70.9309C336.846 70.9309 348.639 70.8435 360.406 70.9921C363.505 70.9921 364.77 70.3455 364.77 66.9117C364.631 51.7784 364.709 36.6363 364.831 21.4768C364.831 18.7769 364.203 17.5624 361.209 17.5711C337.076 17.6643 312.925 17.6643 288.758 17.5711C286.139 17.5711 285.214 18.506 285.266 21.1535C285.353 36.4441 285.371 51.7347 285.266 67.0078C285.266 70.1271 286.348 70.9921 289.334 70.9659C301.214 70.861 313.138 70.9309 325.07 70.9309ZM239.822 70.9309C251.607 70.9309 263.391 70.8435 275.166 70.9921C278.265 70.9921 279.531 70.3455 279.531 66.9117C279.383 51.7784 279.47 36.6363 279.583 21.4768C279.583 18.7769 278.964 17.5624 275.961 17.5711C251.828 17.6643 227.677 17.6643 203.509 17.5711C200.891 17.5711 199.965 18.506 200.018 21.1535C200.105 36.4441 200.105 51.7288 200.018 67.0078C200.018 70.1271 201.1 70.9921 204.086 70.9659C215.975 70.861 227.898 70.9309 239.822 70.9309ZM154.583 70.9309C166.367 70.9309 178.152 70.8435 189.927 70.9921C193.017 70.9921 194.292 70.3455 194.292 66.9117C194.152 51.7784 194.23 36.6363 194.353 21.4768C194.353 18.7769 193.733 17.5624 190.73 17.5711C166.597 17.6643 142.447 17.6643 118.279 17.5711C115.66 17.5711 114.787 18.506 114.787 21.1535C114.875 36.4441 114.892 51.7347 114.787 67.0078C114.787 70.1271 115.87 70.9921 118.855 70.9659C130.727 70.861 142.659 70.9309 154.583 70.9309ZM921.598 70.9309C933.513 70.9309 945.428 70.8872 957.387 70.9309C959.901 70.9309 961.559 70.6426 961.542 67.4971C961.454 52.0754 961.489 36.6538 961.542 21.2321C961.542 18.7419 960.782 17.5187 958.05 17.5274C933.94 17.6032 909.834 17.6032 885.73 17.5274C882.718 17.5274 882.116 18.7332 882.125 21.4243C882.218 36.7091 882.218 51.9851 882.125 67.2524C882.125 70.2144 883.146 70.9484 885.913 70.9222C897.758 70.861 909.674 70.9309 921.598 70.9309ZM1007.09 17.6323C995.183 17.6323 983.277 17.7371 971.371 17.5624C968.315 17.5187 967.224 18.4361 967.242 21.4942C967.323 36.7674 967.323 52.0376 967.242 67.3049C967.242 70.2407 968.438 70.9746 971.161 70.9659C995.131 70.8901 1019.11 70.8901 1043.09 70.9659C1045.65 70.9659 1046.7 70.2756 1046.68 67.5233C1046.58 52.1104 1046.58 36.7004 1046.68 21.2933C1046.68 18.4187 1045.67 17.5624 1042.83 17.5973C1030.9 17.7459 1019 17.6585 1007.09 17.6498V17.6323ZM1211.79 62.5167C1211.79 48.9824 1211.71 35.4305 1211.84 21.9224C1211.84 18.672 1210.72 17.475 1207.53 17.5536C1202.88 17.7109 1198.22 17.6934 1193.56 17.5536C1190.32 17.4488 1189.24 18.8206 1189.25 21.9661C1189.32 49.3435 1189.32 76.6977 1189.25 104.029C1189.25 107.025 1190.39 108.257 1193.35 108.196C1197.85 108.091 1202.38 107.952 1206.86 108.196C1210.78 108.423 1211.87 106.807 1211.83 103.085C1211.7 89.5942 1211.8 76.0598 1211.79 62.5342V62.5167ZM1184.17 100.184C1184.48 98.7428 1184.7 97.2838 1184.84 95.8153C1184.87 70.9542 1184.89 46.0961 1184.89 21.2409C1184.89 18.7157 1184.02 17.5449 1181.3 17.6323C1176.8 17.7896 1172.27 17.3789 1167.81 17.8332C1165.84 18.0342 1163.26 19.2749 1162.24 20.8651C1155.26 31.7171 1151.64 43.8709 1156.41 56.0947C1160.57 66.7544 1167.1 76.5491 1173.1 86.4225C1175.99 91.1495 1180.07 95.1687 1184.17 100.201V100.184Z"/>
</mask>
<path d="M1096.25 163.033C1057.37 160.543 1018.99 162.159 980.623 161.809C942.259 161.46 220.845 161.643 182.551 161.705C178.719 161.705 177.785 160.333 178.064 156.855C179.016 145.2 175.681 135.169 165.844 128.196C157.114 121.949 147.443 121.145 137.78 125.846C127.959 130.625 122.801 138.865 122.067 149.76C121.832 153.36 122.067 156.986 122.067 160.604C121.627 160.843 121.153 161.014 120.662 161.11C101.048 160.543 81.3811 160.508 61.8367 159.153C50.0263 158.341 38.3468 155.536 26.6237 153.535C21.6132 152.661 16.6376 151.613 11.6446 150.643C3.24721 149.009 0 145.042 0 136.305C0 129.472 0 122.631 0.584848 115.798V133.684C3.45671 133.684 6.25001 134.129 8.78144 133.509C10.1781 133.177 12.0287 131.123 12.1247 129.734C12.5175 124.247 12.2905 118.725 12.2905 112.696H0.872907C0.872907 106.222 0.47137 100.271 0.872907 94.3648C2.18227 76.2491 3.67494 58.1334 5.35092 40.0177C5.70881 36.182 7.36733 32.4773 8.3799 28.659C9.39248 24.8407 11.6882 21.8437 12.1596 17.6061C12.5 14.5043 16.5241 11.219 19.6753 9.15692C26.5713 4.63091 34.2005 5.24253 41.9606 7.19973C47.2377 8.67197 52.6697 9.51659 58.1443 9.71612C96.2467 9.96951 134.358 9.87339 172.495 9.96077C224.643 10.0831 960.093 10.2491 1012.23 10.4501C1016.11 10.4501 1019.21 10.2841 1021.48 6.03764C1024.03 1.12718 1029.33 0.436914 1034.4 0.393227C1046.48 0.297114 1058.55 0.262165 1070.62 0.218477C1095.5 0.131102 1120.38 -0.0611224 1145.24 0.017515C1163.78 0.0699399 1182.06 2.10577 1199.82 7.88125C1209.96 11.2391 1218.81 17.6696 1225.13 26.2824C1229.13 31.621 1232.66 33.5607 1238.58 33.0277C1239.6 33.0216 1240.62 33.1064 1241.62 33.2811C1255.69 34.6005 1261.7 40.708 1262.75 54.7404C1262.95 57.4927 1263.23 60.3498 1262.75 63.006C1262.43 64.5788 1260.62 65.8544 1259.48 67.2612C1258.54 66.0904 1256.86 64.9894 1256.78 63.7662C1256.31 58.5761 1256.85 53.2812 1255.9 48.1698C1255.51 46.099 1252.52 43.4079 1250.32 42.9797C1244.01 41.7477 1237.49 41.538 1230.01 40.8216C1236.82 60.5158 1239.51 79.7034 1240.37 99.5462L1246.17 100.123C1246.48 107.987 1247.1 115.929 1247.04 123.88C1247.04 129.402 1245.91 134.907 1245.53 140.429C1245.45 143.376 1245.53 146.326 1245.8 149.262C1246.13 155.064 1243.87 158.874 1238.1 160.665C1234.77 161.685 1231.3 162.215 1227.82 162.238C1210.08 162.491 1192.33 162.526 1174.57 162.605C1167.59 162.605 1160.67 162.605 1152.94 162.605C1152.94 159.18 1153.11 154.741 1152.94 150.293C1152.6 143.994 1150.22 137.977 1146.15 133.157C1142.09 128.336 1136.56 124.975 1130.41 123.583C1118.05 120.962 1104.89 127.078 1099.57 138.769C1097.7 142.875 1097.08 147.663 1096.45 152.216C1095.86 155.728 1096.25 159.398 1096.25 163.033ZM67.9209 70.9397C80.2725 70.9397 92.6241 70.8872 104.967 70.9397C107.787 70.9397 109.209 70.3892 109.174 67.1301C109.046 51.857 109.046 36.5868 109.174 21.3195C109.174 18.4536 108.153 17.5536 105.351 17.5624C80.7933 17.6323 56.2385 17.6323 31.6865 17.5624C30.0941 17.531 28.5178 17.8857 27.092 18.5962C25.6663 19.3067 24.4334 20.352 23.4986 21.6428C11.8366 36.0072 11.7144 51.7259 22.9662 66.4049C24.0431 67.9402 25.4974 69.1714 27.1886 69.9795C28.8799 70.7877 30.7508 71.1455 32.6205 71.0183C44.3873 70.8348 56.1541 70.9397 67.9209 70.9397ZM1147.93 18.0429C1147.03 17.8666 1146.11 17.7383 1145.19 17.6585C1115.7 17.6585 1086.19 17.6585 1056.69 17.5624C1053.67 17.5624 1053.03 18.8381 1053.05 21.503C1053.12 36.4878 1053.21 51.4813 1053 66.4661C1052.94 70.2843 1054.35 71.0096 1057.8 70.9921C1086 70.8872 1114.2 70.9397 1142.41 70.9309C1143.77 70.9309 1145.13 70.7562 1147.05 70.6251C1138.68 52.8006 1139.68 35.5266 1147.93 18.0429ZM836.524 70.9309C848.299 70.9309 860.092 70.8435 871.859 70.9921C874.958 70.9921 876.224 70.3455 876.224 66.9117C876.084 51.7784 876.163 36.6363 876.285 21.4768C876.285 18.7769 875.656 17.5624 872.662 17.5711C848.518 17.6643 824.367 17.6643 800.211 17.5711C797.592 17.5711 796.667 18.506 796.719 21.1535C796.807 36.4441 796.824 51.7347 796.719 67.0078C796.719 70.1271 797.802 70.9921 800.787 70.9659C812.676 70.861 824.591 70.9309 836.524 70.9309ZM751.276 70.9309C763.06 70.9309 774.844 70.8435 786.62 70.9921C789.719 70.9921 790.984 70.3455 790.984 66.9117C790.836 51.7784 790.915 36.6363 791.037 21.4768C791.037 18.7769 790.417 17.5624 787.414 17.5711C763.281 17.6643 739.145 17.6643 715.007 17.5711C712.388 17.5711 711.463 18.506 711.515 21.1535C711.602 36.4441 711.602 51.7288 711.515 67.0078C711.515 70.1271 712.597 70.9921 715.583 70.9659C727.428 70.861 739.352 70.9309 751.276 70.9309ZM666.037 70.9309C677.821 70.9309 689.605 70.8435 701.381 70.9921C704.471 70.9921 705.745 70.3455 705.745 66.9117C705.605 51.7784 705.684 36.6363 705.806 21.4768C705.806 18.7769 705.186 17.5624 702.184 17.5711C678.045 17.6643 653.894 17.6643 629.732 17.5711C627.114 17.5711 626.241 18.506 626.241 21.1535C626.328 36.4441 626.346 51.7347 626.241 67.0078C626.241 70.1271 627.323 70.9921 630.309 70.9659C642.18 70.861 654.113 70.9309 666.028 70.9309H666.037ZM580.797 70.9309C592.573 70.9309 604.366 70.8435 616.133 70.9921C619.231 70.9921 620.497 70.3455 620.497 66.9117C620.357 51.7784 620.436 36.6363 620.558 21.4768C620.558 18.7769 619.93 17.5624 616.936 17.5711C592.791 17.6643 568.641 17.6643 544.484 17.5711C541.866 17.5711 540.94 18.506 540.993 21.1535C541.08 36.4441 541.097 51.7347 540.993 67.0078C540.993 70.1271 542.075 70.9921 545.06 70.9659C556.914 70.861 568.865 70.9309 580.797 70.9309ZM495.549 70.9309C507.333 70.9309 519.118 70.8435 530.893 70.9921C533.992 70.9921 535.258 70.3455 535.258 66.9117C535.109 51.7784 535.197 36.6363 535.31 21.4768C535.31 18.7769 534.69 17.5624 531.688 17.5711C507.549 17.6643 483.398 17.6643 459.236 17.5711C456.617 17.5711 455.692 18.506 455.745 21.1535C455.832 36.4441 455.832 51.7288 455.745 67.0078C455.745 70.1271 456.827 70.9921 459.812 70.9659C471.701 70.861 483.59 70.9309 495.549 70.9309ZM410.31 70.9309C422.094 70.9309 433.878 70.8435 445.654 70.9921C448.744 70.9921 450.018 70.3455 450.018 66.9117C449.879 51.7784 449.957 36.6363 450.079 21.4768C450.079 18.7769 449.46 17.5624 446.457 17.5711C422.318 17.6643 398.168 17.6643 374.006 17.5711C371.387 17.5711 370.47 18.506 370.514 21.1535C370.601 36.4441 370.619 51.7347 370.514 67.0078C370.514 70.1271 371.596 70.9921 374.582 70.9659C386.453 70.861 398.386 70.9309 410.31 70.9309ZM325.07 70.9309C336.846 70.9309 348.639 70.8435 360.406 70.9921C363.505 70.9921 364.77 70.3455 364.77 66.9117C364.631 51.7784 364.709 36.6363 364.831 21.4768C364.831 18.7769 364.203 17.5624 361.209 17.5711C337.076 17.6643 312.925 17.6643 288.758 17.5711C286.139 17.5711 285.214 18.506 285.266 21.1535C285.353 36.4441 285.371 51.7347 285.266 67.0078C285.266 70.1271 286.348 70.9921 289.334 70.9659C301.214 70.861 313.138 70.9309 325.07 70.9309ZM239.822 70.9309C251.607 70.9309 263.391 70.8435 275.166 70.9921C278.265 70.9921 279.531 70.3455 279.531 66.9117C279.383 51.7784 279.47 36.6363 279.583 21.4768C279.583 18.7769 278.964 17.5624 275.961 17.5711C251.828 17.6643 227.677 17.6643 203.509 17.5711C200.891 17.5711 199.965 18.506 200.018 21.1535C200.105 36.4441 200.105 51.7288 200.018 67.0078C200.018 70.1271 201.1 70.9921 204.086 70.9659C215.975 70.861 227.898 70.9309 239.822 70.9309ZM154.583 70.9309C166.367 70.9309 178.152 70.8435 189.927 70.9921C193.017 70.9921 194.292 70.3455 194.292 66.9117C194.152 51.7784 194.23 36.6363 194.353 21.4768C194.353 18.7769 193.733 17.5624 190.73 17.5711C166.597 17.6643 142.447 17.6643 118.279 17.5711C115.66 17.5711 114.787 18.506 114.787 21.1535C114.875 36.4441 114.892 51.7347 114.787 67.0078C114.787 70.1271 115.87 70.9921 118.855 70.9659C130.727 70.861 142.659 70.9309 154.583 70.9309ZM921.598 70.9309C933.513 70.9309 945.428 70.8872 957.387 70.9309C959.901 70.9309 961.559 70.6426 961.542 67.4971C961.454 52.0754 961.489 36.6538 961.542 21.2321C961.542 18.7419 960.782 17.5187 958.05 17.5274C933.94 17.6032 909.834 17.6032 885.73 17.5274C882.718 17.5274 882.116 18.7332 882.125 21.4243C882.218 36.7091 882.218 51.9851 882.125 67.2524C882.125 70.2144 883.146 70.9484 885.913 70.9222C897.758 70.861 909.674 70.9309 921.598 70.9309ZM1007.09 17.6323C995.183 17.6323 983.277 17.7371 971.371 17.5624C968.315 17.5187 967.224 18.4361 967.242 21.4942C967.323 36.7674 967.323 52.0376 967.242 67.3049C967.242 70.2407 968.438 70.9746 971.161 70.9659C995.131 70.8901 1019.11 70.8901 1043.09 70.9659C1045.65 70.9659 1046.7 70.2756 1046.68 67.5233C1046.58 52.1104 1046.58 36.7004 1046.68 21.2933C1046.68 18.4187 1045.67 17.5624 1042.83 17.5973C1030.9 17.7459 1019 17.6585 1007.09 17.6498V17.6323ZM1211.79 62.5167C1211.79 48.9824 1211.71 35.4305 1211.84 21.9224C1211.84 18.672 1210.72 17.475 1207.53 17.5536C1202.88 17.7109 1198.22 17.6934 1193.56 17.5536C1190.32 17.4488 1189.24 18.8206 1189.25 21.9661C1189.32 49.3435 1189.32 76.6977 1189.25 104.029C1189.25 107.025 1190.39 108.257 1193.35 108.196C1197.85 108.091 1202.38 107.952 1206.86 108.196C1210.78 108.423 1211.87 106.807 1211.83 103.085C1211.7 89.5942 1211.8 76.0598 1211.79 62.5342V62.5167ZM1184.17 100.184C1184.48 98.7428 1184.7 97.2838 1184.84 95.8153C1184.87 70.9542 1184.89 46.0961 1184.89 21.2409C1184.89 18.7157 1184.02 17.5449 1181.3 17.6323C1176.8 17.7896 1172.27 17.3789 1167.81 17.8332C1165.84 18.0342 1163.26 19.2749 1162.24 20.8651C1155.26 31.7171 1151.64 43.8709 1156.41 56.0947C1160.57 66.7544 1167.1 76.5491 1173.1 86.4225C1175.99 91.1495 1180.07 95.1687 1184.17 100.201V100.184Z" stroke="#2844DA" stroke-width="6" mask="url(#path-1-inside-1_188_5990)"/>
<path d="M1124.35 176.5L1124.34 176.5L1124.33 176.5C1110.98 176.541 1099.56 165.045 1099.53 151.467C1099.57 144.814 1102.24 138.448 1106.96 133.766C1111.68 129.084 1118.07 126.47 1124.71 126.498C1127.99 126.522 1131.24 127.193 1134.26 128.471C1137.28 129.749 1140.02 131.61 1142.32 133.949C1144.62 136.287 1146.44 139.056 1147.67 142.099C1148.91 145.141 1149.53 148.397 1149.51 151.68C1149.48 154.964 1148.81 158.21 1147.54 161.235C1146.26 164.259 1144.4 167.001 1142.06 169.306C1139.73 171.611 1136.96 173.432 1133.92 174.666C1130.88 175.901 1127.63 176.524 1124.35 176.5ZM1108.84 151.24L1108.84 151.252L1108.84 151.264C1108.74 159.781 1116.22 167.437 1124.69 167.398C1128.91 167.38 1132.95 165.688 1135.92 162.692C1138.9 159.697 1140.56 155.644 1140.56 151.422C1140.56 149.335 1140.15 147.268 1139.35 145.341C1138.55 143.414 1137.37 141.666 1135.88 140.2C1134.4 138.734 1132.63 137.579 1130.7 136.802C1128.76 136.026 1126.69 135.644 1124.6 135.679C1120.48 135.733 1116.53 137.383 1113.59 140.283C1110.65 143.184 1108.95 147.11 1108.84 151.24Z" stroke="#2844DA" stroke-width="3"/>
<path d="M133.801 151.521L133.801 151.495C133.836 147.278 135.539 143.247 138.536 140.283C141.533 137.319 145.581 135.663 149.795 135.678M133.801 151.521L149.796 135.678C149.796 135.678 149.795 135.678 149.795 135.678M133.801 151.521L133.801 151.547M133.801 151.521L133.801 151.547M149.795 135.678C151.88 135.683 153.943 136.102 155.865 136.911M149.795 135.678L155.865 136.911M133.801 151.547C133.909 155.666 135.573 159.591 138.459 162.531C141.344 165.471 145.236 167.207 149.35 167.388L149.38 167.39M133.801 151.547L149.38 167.39M149.38 167.39L149.41 167.39M149.38 167.39L149.41 167.39M149.41 167.39C153.616 167.406 157.661 165.769 160.673 162.831C163.686 159.893 165.426 155.889 165.519 151.681L165.519 151.681M149.41 167.39L165.519 151.681M165.519 151.681L165.519 151.668M165.519 151.681L165.519 151.668M165.519 151.668C165.547 149.582 165.162 147.51 164.385 145.574M165.519 151.668L164.385 145.574M164.385 145.574C163.608 143.638 162.454 141.876 160.992 140.388M164.385 145.574L160.992 140.388M160.992 140.388C159.53 138.901 157.787 137.719 155.865 136.911M160.992 140.388L155.865 136.911M149.843 126.516L149.849 126.516C153.141 126.504 156.403 127.147 159.444 128.408C162.486 129.67 165.246 131.524 167.565 133.864C169.884 136.203 171.715 138.981 172.951 142.036C174.188 145.09 174.805 148.361 174.766 151.656H174.766L174.766 151.668C174.709 165.256 163.278 176.606 149.831 176.482V176.482H149.817C143.198 176.482 136.85 173.851 132.17 169.165C127.489 164.48 124.859 158.126 124.859 151.499C124.859 144.873 127.489 138.518 132.17 133.833C136.85 129.148 143.198 126.516 149.817 126.516L149.843 126.516Z" stroke="#2844DA" stroke-width="3"/>
<path d="M1120.29 147.139C1121.43 145.936 1122.99 145.224 1124.64 145.154C1126.3 145.204 1127.87 145.878 1129.05 147.042C1130.23 148.208 1130.92 149.777 1130.99 151.433C1130.95 153.021 1130.32 154.537 1129.22 155.682C1128.11 156.835 1126.6 157.527 1125.01 157.621C1124.19 157.659 1123.38 157.535 1122.61 157.255C1121.84 156.974 1121.13 156.542 1120.53 155.985C1119.93 155.427 1119.45 154.755 1119.11 154.007C1118.77 153.262 1118.58 152.456 1118.56 151.638C1118.53 149.968 1119.15 148.353 1120.29 147.139Z" stroke="#2844DA" stroke-width="3"/>
<path d="M155.825 151.599L155.825 151.616L155.825 151.634C155.812 152.448 155.636 153.251 155.309 153.997C154.981 154.742 154.507 155.414 153.916 155.973C153.325 156.532 152.628 156.967 151.867 157.252C151.105 157.538 150.295 157.668 149.482 157.634C148.67 157.601 147.872 157.406 147.137 157.059C146.401 156.713 145.742 156.222 145.198 155.616L144.082 156.618L145.198 155.616C144.655 155.011 144.238 154.302 143.972 153.533C143.706 152.763 143.596 151.948 143.65 151.136L143.651 151.121L143.652 151.106C143.726 149.514 144.409 148.011 145.559 146.91C146.705 145.812 148.227 145.197 149.812 145.189C150.625 145.208 151.425 145.388 152.168 145.718C152.917 146.051 153.591 146.53 154.153 147.126L155.245 146.098L154.153 147.126C154.714 147.723 155.151 148.426 155.439 149.194C155.726 149.962 155.857 150.779 155.825 151.599Z" stroke="#2844DA" stroke-width="3"/>
</svg>
