<svg width="690" height="166" viewBox="0 0 690 166" fill="none" xmlns="http://www.w3.org/2000/svg">
<mask id="path-1-inside-1_272_108" fill="white">
<path d="M535.221 151.194C499.272 148.9 310.378 150.403 274.905 150.081C239.432 149.759 204.201 149.928 168.793 149.984C165.25 149.984 164.386 148.721 164.644 145.517C165.524 134.778 162.441 125.536 153.345 119.112C145.273 113.356 136.331 112.615 127.396 116.946C118.316 121.35 113.546 128.941 112.868 138.98C112.65 142.296 112.868 145.637 112.868 148.97C112.461 149.19 112.022 149.348 111.568 149.437C93.4321 148.914 75.2477 148.882 57.1763 147.634C46.256 146.885 35.4568 144.301 24.6171 142.457C19.9843 141.652 15.3837 140.686 10.767 139.793C3.00248 138.287 0 134.633 0 126.583C0 120.287 0 113.984 0.54077 107.688V124.167C3.19619 124.167 5.77898 124.578 8.11962 124.006C9.41101 123.7 11.1221 121.809 11.2109 120.529C11.5741 115.473 11.3642 110.385 11.3642 104.831H0.807119C0.807119 98.8653 0.435844 93.3831 0.807119 87.9411C2.0178 71.2502 3.39797 54.56 4.94764 37.8691C5.27856 34.335 6.81209 30.9212 7.74835 27.4032C8.68461 23.8853 10.8073 21.124 11.2432 17.2197C11.558 14.3618 15.2788 11.3351 18.1925 9.43523C24.5687 5.26519 31.6229 5.82866 38.7982 7.63192C43.6776 8.98837 48.7002 9.76661 53.7622 9.95045C88.993 10.1839 124.232 10.0954 159.495 10.1759C207.712 10.2886 255.924 10.4388 304.131 10.6267C307.714 10.6267 310.628 10.4737 312.678 6.56124C315.043 2.03699 319.942 1.40102 324.632 1.36077C335.762 1.27222 500.338 1.22584 511.5 1.18559C534.495 1.10509 557.506 0.927983 580.493 1.00044C597.628 1.04874 614.529 2.92445 630.954 8.24567C640.33 11.3394 648.509 17.2642 654.36 25.1995C658.057 30.1182 661.326 31.9054 666.798 31.4143C667.739 31.4087 668.679 31.4869 669.607 31.6478C682.609 32.8634 688.17 38.4905 689.147 51.4192C689.325 53.9551 689.583 56.5875 689.099 59.0348C688.808 60.4838 687.129 61.6592 686.08 62.9553C685.208 61.8765 683.659 60.8622 683.578 59.7352C683.15 54.9533 683.642 50.0749 682.771 45.3654C682.408 43.4575 679.639 40.9781 677.613 40.5836C671.77 39.4485 665.749 39.2553 658.84 38.5952C665.127 56.7405 667.613 74.4189 668.404 92.701L673.771 93.2323C674.062 100.478 674.627 107.795 674.578 115.121C674.538 120.209 673.521 125.28 673.182 130.368C673.094 133.084 673.175 135.802 673.424 138.507C673.723 143.852 671.633 147.362 666.297 149.013C663.218 149.953 660.018 150.441 656.798 150.462C640.389 150.695 623.98 150.727 607.563 150.8C601.106 150.8 594.714 150.8 587.563 150.8C587.563 147.644 587.716 143.555 587.563 139.457C587.249 133.652 585.046 128.108 581.286 123.667C577.526 119.225 572.416 116.129 566.731 114.847C555.302 112.432 543.131 118.067 538.216 128.839C536.488 132.622 535.907 137.034 535.334 141.228C534.866 144.464 535.221 147.845 535.221 151.194ZM61.0667 66.3583C72.4874 66.3583 83.9081 66.31 95.3208 66.3583C97.9278 66.3583 99.2353 65.8518 99.2111 62.849C99.082 48.7772 99.0981 34.7129 99.2111 20.641C99.2111 18.0005 98.2668 17.1713 95.6759 17.1794C72.9744 17.2438 50.2701 17.2438 27.5631 17.1794C26.0897 17.1512 24.6313 17.4783 23.3118 18.1328C21.9923 18.7873 20.8508 19.75 19.9843 20.9389C9.20116 34.1735 9.09624 48.6564 19.5 62.1809C20.4957 63.5954 21.8405 64.7291 23.4042 65.4737C24.968 66.2183 26.6979 66.548 28.4267 66.4308C39.3067 66.2617 50.1867 66.3583 61.0667 66.3583ZM583.019 17.6081C582.181 17.4468 581.335 17.3286 580.484 17.2539C553.204 17.2539 525.923 17.2539 498.643 17.1654C495.85 17.1654 495.269 18.3407 495.277 20.796C495.341 34.6022 495.422 48.4165 495.228 62.2227C495.18 65.7407 496.48 66.4088 499.668 66.3927C525.746 66.2961 551.824 66.3444 577.902 66.3364C579.161 66.3364 580.42 66.1754 582.196 66.0546C574.455 49.6321 575.375 33.7167 583.019 17.6081ZM141.666 66.3503C152.554 66.3503 163.458 66.2698 174.338 66.4066C177.203 66.4066 178.373 65.8115 178.373 62.6478C178.244 48.7047 178.317 34.7531 178.43 20.7859C178.43 18.2984 177.849 17.1794 175.08 17.1875C152.766 17.2733 130.436 17.2733 108.089 17.1875C105.668 17.1875 104.813 18.0488 104.861 20.4881C104.942 34.576 104.958 48.6645 104.861 62.7363C104.861 65.6103 105.862 66.4066 108.622 66.3825C119.607 66.2859 130.632 66.3503 141.666 66.3503ZM220.327 66.3503C231.345 66.3503 242.37 66.31 253.419 66.3503C255.744 66.3503 257.277 66.0852 257.261 63.1871C257.189 48.9784 257.213 34.7692 257.261 20.5605C257.261 18.2662 256.567 17.1391 254.033 17.1472C231.74 17.217 209.45 17.217 187.163 17.1472C184.378 17.1472 183.821 18.2581 183.83 20.7376C183.918 34.8175 183.934 48.914 183.83 62.9617C183.83 65.6908 184.774 66.3664 187.332 66.3422C198.285 66.2859 209.302 66.3503 220.344 66.3503H220.327ZM299.385 17.2438C288.368 17.2438 277.359 17.3404 266.349 17.1794C263.525 17.1391 262.516 17.9844 262.532 20.802C262.607 34.8739 262.607 48.9436 262.532 63.01C262.532 65.7149 263.637 66.3905 266.156 66.3825C288.33 66.3127 310.499 66.3127 332.662 66.3825C335.027 66.3825 336.012 65.7471 335.988 63.2113C335.891 49.0106 335.891 34.8122 335.988 20.6169C335.988 17.9683 335.051 17.1794 332.42 17.2116C321.395 17.3485 310.386 17.268 299.385 17.2599V17.2438ZM642.052 58.6001C642.052 46.1302 641.979 33.6443 642.1 21.1986C642.1 18.2039 641.067 17.101 638.113 17.1734C633.819 17.3183 629.509 17.3022 625.199 17.1734C622.205 17.0768 621.212 18.3407 621.22 21.2388C621.284 46.463 621.284 71.6657 621.22 96.8469C621.22 99.6081 622.277 100.743 625.013 100.687C629.178 100.59 633.359 100.461 637.507 100.687C641.131 100.896 642.14 99.4069 642.1 95.9775C641.971 83.5318 642.06 71.0619 642.052 58.6001ZM616.514 93.3048C616.803 91.9769 617.011 90.6327 617.136 89.2796C617.168 66.374 617.184 43.471 617.184 20.5706C617.184 18.2441 616.377 17.1654 613.867 17.2459C609.702 17.3908 605.513 17.0124 601.389 17.431C599.565 17.6162 597.184 18.7593 596.24 20.2245C589.783 30.2229 586.441 41.4208 590.848 52.6831C594.698 62.5045 600.735 71.5288 606.28 80.6256C608.952 84.9647 612.721 88.6678 616.514 93.3048Z"/>
</mask>
<path d="M535.221 151.194C499.272 148.9 310.378 150.403 274.905 150.081C239.432 149.759 204.201 149.928 168.793 149.984C165.25 149.984 164.386 148.721 164.644 145.517C165.524 134.778 162.441 125.536 153.345 119.112C145.273 113.356 136.331 112.615 127.396 116.946C118.316 121.35 113.546 128.941 112.868 138.98C112.65 142.296 112.868 145.637 112.868 148.97C112.461 149.19 112.022 149.348 111.568 149.437C93.4321 148.914 75.2477 148.882 57.1763 147.634C46.256 146.885 35.4568 144.301 24.6171 142.457C19.9843 141.652 15.3837 140.686 10.767 139.793C3.00248 138.287 0 134.633 0 126.583C0 120.287 0 113.984 0.54077 107.688V124.167C3.19619 124.167 5.77898 124.578 8.11962 124.006C9.41101 123.7 11.1221 121.809 11.2109 120.529C11.5741 115.473 11.3642 110.385 11.3642 104.831H0.807119C0.807119 98.8653 0.435844 93.3831 0.807119 87.9411C2.0178 71.2502 3.39797 54.56 4.94764 37.8691C5.27856 34.335 6.81209 30.9212 7.74835 27.4032C8.68461 23.8853 10.8073 21.124 11.2432 17.2197C11.558 14.3618 15.2788 11.3351 18.1925 9.43523C24.5687 5.26519 31.6229 5.82866 38.7982 7.63192C43.6776 8.98837 48.7002 9.76661 53.7622 9.95045C88.993 10.1839 124.232 10.0954 159.495 10.1759C207.712 10.2886 255.924 10.4388 304.131 10.6267C307.714 10.6267 310.628 10.4737 312.678 6.56124C315.043 2.03699 319.942 1.40102 324.632 1.36077C335.762 1.27222 500.338 1.22584 511.5 1.18559C534.495 1.10509 557.506 0.927983 580.493 1.00044C597.628 1.04874 614.529 2.92445 630.954 8.24567C640.33 11.3394 648.509 17.2642 654.36 25.1995C658.057 30.1182 661.326 31.9054 666.798 31.4143C667.739 31.4087 668.679 31.4869 669.607 31.6478C682.609 32.8634 688.17 38.4905 689.147 51.4192C689.325 53.9551 689.583 56.5875 689.099 59.0348C688.808 60.4838 687.129 61.6592 686.08 62.9553C685.208 61.8765 683.659 60.8622 683.578 59.7352C683.15 54.9533 683.642 50.0749 682.771 45.3654C682.408 43.4575 679.639 40.9781 677.613 40.5836C671.77 39.4485 665.749 39.2553 658.84 38.5952C665.127 56.7405 667.613 74.4189 668.404 92.701L673.771 93.2323C674.062 100.478 674.627 107.795 674.578 115.121C674.538 120.209 673.521 125.28 673.182 130.368C673.094 133.084 673.175 135.802 673.424 138.507C673.723 143.852 671.633 147.362 666.297 149.013C663.218 149.953 660.018 150.441 656.798 150.462C640.389 150.695 623.98 150.727 607.563 150.8C601.106 150.8 594.714 150.8 587.563 150.8C587.563 147.644 587.716 143.555 587.563 139.457C587.249 133.652 585.046 128.108 581.286 123.667C577.526 119.225 572.416 116.129 566.731 114.847C555.302 112.432 543.131 118.067 538.216 128.839C536.488 132.622 535.907 137.034 535.334 141.228C534.866 144.464 535.221 147.845 535.221 151.194ZM61.0667 66.3583C72.4874 66.3583 83.9081 66.31 95.3208 66.3583C97.9278 66.3583 99.2353 65.8518 99.2111 62.849C99.082 48.7772 99.0981 34.7129 99.2111 20.641C99.2111 18.0005 98.2668 17.1713 95.6759 17.1794C72.9744 17.2438 50.2701 17.2438 27.5631 17.1794C26.0897 17.1512 24.6313 17.4783 23.3118 18.1328C21.9923 18.7873 20.8508 19.75 19.9843 20.9389C9.20116 34.1735 9.09624 48.6564 19.5 62.1809C20.4957 63.5954 21.8405 64.7291 23.4042 65.4737C24.968 66.2183 26.6979 66.548 28.4267 66.4308C39.3067 66.2617 50.1867 66.3583 61.0667 66.3583ZM583.019 17.6081C582.181 17.4468 581.335 17.3286 580.484 17.2539C553.204 17.2539 525.923 17.2539 498.643 17.1654C495.85 17.1654 495.269 18.3407 495.277 20.796C495.341 34.6022 495.422 48.4165 495.228 62.2227C495.18 65.7407 496.48 66.4088 499.668 66.3927C525.746 66.2961 551.824 66.3444 577.902 66.3364C579.161 66.3364 580.42 66.1754 582.196 66.0546C574.455 49.6321 575.375 33.7167 583.019 17.6081ZM141.666 66.3503C152.554 66.3503 163.458 66.2698 174.338 66.4066C177.203 66.4066 178.373 65.8115 178.373 62.6478C178.244 48.7047 178.317 34.7531 178.43 20.7859C178.43 18.2984 177.849 17.1794 175.08 17.1875C152.766 17.2733 130.436 17.2733 108.089 17.1875C105.668 17.1875 104.813 18.0488 104.861 20.4881C104.942 34.576 104.958 48.6645 104.861 62.7363C104.861 65.6103 105.862 66.4066 108.622 66.3825C119.607 66.2859 130.632 66.3503 141.666 66.3503ZM220.327 66.3503C231.345 66.3503 242.37 66.31 253.419 66.3503C255.744 66.3503 257.277 66.0852 257.261 63.1871C257.189 48.9784 257.213 34.7692 257.261 20.5605C257.261 18.2662 256.567 17.1391 254.033 17.1472C231.74 17.217 209.45 17.217 187.163 17.1472C184.378 17.1472 183.821 18.2581 183.83 20.7376C183.918 34.8175 183.934 48.914 183.83 62.9617C183.83 65.6908 184.774 66.3664 187.332 66.3422C198.285 66.2859 209.302 66.3503 220.344 66.3503H220.327ZM299.385 17.2438C288.368 17.2438 277.359 17.3404 266.349 17.1794C263.525 17.1391 262.516 17.9844 262.532 20.802C262.607 34.8739 262.607 48.9436 262.532 63.01C262.532 65.7149 263.637 66.3905 266.156 66.3825C288.33 66.3127 310.499 66.3127 332.662 66.3825C335.027 66.3825 336.012 65.7471 335.988 63.2113C335.891 49.0106 335.891 34.8122 335.988 20.6169C335.988 17.9683 335.051 17.1794 332.42 17.2116C321.395 17.3485 310.386 17.268 299.385 17.2599V17.2438ZM642.052 58.6001C642.052 46.1302 641.979 33.6443 642.1 21.1986C642.1 18.2039 641.067 17.101 638.113 17.1734C633.819 17.3183 629.509 17.3022 625.199 17.1734C622.205 17.0768 621.212 18.3407 621.22 21.2388C621.284 46.463 621.284 71.6657 621.22 96.8469C621.22 99.6081 622.277 100.743 625.013 100.687C629.178 100.59 633.359 100.461 637.507 100.687C641.131 100.896 642.14 99.4069 642.1 95.9775C641.971 83.5318 642.06 71.0619 642.052 58.6001ZM616.514 93.3048C616.803 91.9769 617.011 90.6327 617.136 89.2796C617.168 66.374 617.184 43.471 617.184 20.5706C617.184 18.2441 616.377 17.1654 613.867 17.2459C609.702 17.3908 605.513 17.0124 601.389 17.431C599.565 17.6162 597.184 18.7593 596.24 20.2245C589.783 30.2229 586.441 41.4208 590.848 52.6831C594.698 62.5045 600.735 71.5288 606.28 80.6256C608.952 84.9647 612.721 88.6678 616.514 93.3048Z" stroke="#2844DA" stroke-width="6" mask="url(#path-1-inside-1_272_108)"/>
<path d="M561.338 164.333L561.33 164.333L561.322 164.333C549.035 164.371 538.526 153.829 538.5 141.387C538.533 135.289 540.992 129.454 545.338 125.162C549.684 120.869 555.563 118.473 561.681 118.5C567.776 118.546 573.603 121.004 577.879 125.334C582.157 129.664 584.533 135.51 584.488 141.587C584.443 147.663 581.979 153.474 577.638 157.74C573.297 162.006 567.434 164.378 561.338 164.333ZM572.128 151.809C574.894 149.027 576.443 145.264 576.435 141.345C576.439 139.406 576.056 137.485 575.309 135.696C574.56 133.906 573.462 132.282 572.077 130.92C570.693 129.559 569.05 128.486 567.246 127.766C565.442 127.045 563.512 126.691 561.569 126.723C557.729 126.779 554.058 128.315 551.324 131.009C548.591 133.704 547.007 137.35 546.905 141.184L546.905 141.195L546.905 141.206C546.815 149.124 553.784 156.228 561.672 156.192L561.675 156.192C565.602 156.168 569.361 154.593 572.128 151.809Z" stroke="#2844DA" stroke-width="3"/>
<path d="M161.539 140.718H161.539L161.539 140.729C161.486 153.187 150.971 163.596 138.597 163.483V163.483H138.583C132.491 163.483 126.65 161.069 122.344 156.774C118.038 152.479 115.619 146.655 115.619 140.582C115.619 134.51 118.038 128.686 122.344 124.391C126.65 120.096 132.491 117.682 138.583 117.682V116.182L138.59 117.682C141.622 117.667 144.626 118.253 147.427 119.408C150.228 120.562 152.771 122.261 154.907 124.406C157.042 126.55 158.729 129.097 159.867 131.897C161.006 134.698 161.574 137.696 161.539 140.718ZM123.661 140.57L123.66 140.595L123.661 140.621C123.76 144.448 125.31 148.095 127.999 150.825C130.688 153.555 134.315 155.165 138.147 155.332L138.175 155.333L138.203 155.333C142.125 155.355 145.9 153.839 148.713 151.11C151.526 148.382 153.152 144.659 153.239 140.744H153.239L153.239 140.731C153.265 138.789 152.904 136.86 152.176 135.058C151.448 133.257 150.368 131.617 148.999 130.236C147.63 128.855 146 127.759 144.203 127.013C142.407 126.267 140.48 125.885 138.535 125.888C134.617 125.879 130.853 127.417 128.066 130.166C125.278 132.917 123.694 136.657 123.661 140.57Z" stroke="#2844DA" stroke-width="3"/>
<path d="M557.668 137.483C558.698 136.397 560.112 135.753 561.61 135.689C563.11 135.735 564.538 136.345 565.605 137.397C566.673 138.449 567.301 139.864 567.365 141.357C567.326 142.788 566.754 144.154 565.757 145.187C564.752 146.228 563.39 146.854 561.942 146.94C561.201 146.974 560.462 146.862 559.765 146.609C559.067 146.355 558.427 145.965 557.882 145.462C557.337 144.958 556.898 144.352 556.591 143.678C556.285 143.005 556.117 142.279 556.095 141.542C556.065 140.036 556.63 138.579 557.668 137.483Z" stroke="#2844DA" stroke-width="3"/>
<path d="M144.001 140.662L144 140.678L144 140.695C143.989 141.429 143.83 142.153 143.534 142.825C143.237 143.497 142.809 144.103 142.273 144.608C141.738 145.112 141.106 145.505 140.416 145.763C139.725 146.021 138.99 146.138 138.253 146.108C137.517 146.078 136.793 145.901 136.127 145.588C135.46 145.275 134.862 144.832 134.37 144.286C133.878 143.739 133.501 143.1 133.26 142.407C133.019 141.713 132.921 140.978 132.969 140.246L132.97 140.232L132.971 140.217C133.038 138.783 133.656 137.428 134.698 136.435C135.736 135.446 137.115 134.891 138.552 134.885C139.288 134.902 140.014 135.065 140.687 135.363C141.365 135.663 141.976 136.095 142.484 136.633C142.993 137.171 143.389 137.804 143.649 138.496C143.91 139.187 144.029 139.924 144.001 140.662Z" stroke="#2844DA" stroke-width="3"/>
</svg>
