<svg width="536" height="164" viewBox="0 0 536 164" fill="none" xmlns="http://www.w3.org/2000/svg">
<mask id="path-1-inside-1_194_6724" fill="white">
<path d="M154.184 150.21C190.133 147.916 225.622 149.405 261.095 149.083C296.568 148.761 331.799 148.93 367.207 148.986C370.75 148.986 371.614 147.722 371.356 144.518C370.476 133.779 373.559 124.538 382.655 118.113C390.727 112.358 399.669 111.617 408.604 115.948C417.684 120.351 422.454 127.943 423.132 137.982C423.35 141.298 423.132 144.639 423.132 147.972C423.539 148.192 423.978 148.35 424.432 148.439C442.568 147.916 460.752 147.883 478.824 146.636C489.744 145.887 500.543 143.303 511.383 141.459C516.016 140.654 520.616 139.688 525.233 138.795C532.998 137.289 536 133.634 536 125.584C536 119.289 536 112.985 535.459 106.69V123.169C532.804 123.169 530.221 123.58 527.88 123.008C526.589 122.702 524.878 120.81 524.789 119.53C524.426 114.475 524.636 109.387 524.636 103.832H535.193C535.193 97.867 535.564 92.3848 535.193 86.9428C533.982 70.2519 532.602 53.5611 531.052 36.8702C530.721 33.3361 529.188 29.9228 528.252 26.4048C527.315 22.8869 525.193 20.1256 524.757 16.2212C524.442 13.3634 520.721 10.3365 517.808 8.43664C511.431 4.2666 504.377 4.83012 497.202 6.63338C492.322 7.98983 487.3 8.76802 482.238 8.95185C447.007 9.18531 411.768 9.09676 376.505 9.17726C328.288 9.28997 280.076 9.44024 231.869 9.62808C228.286 9.62808 225.372 9.47512 223.322 5.56269C220.957 1.03844 216.058 0.402473 211.368 0.362222C200.238 0.273669 189.068 0.241468 177.905 0.201217C154.91 0.120714 131.9 -0.0563918 108.913 0.0160606C91.7776 0.0643622 74.8766 1.94007 58.4517 7.2613C49.0757 10.3551 40.896 16.2798 35.0452 24.2152C31.3486 29.1339 28.0797 30.921 22.6075 30.43C21.6661 30.4244 20.7261 30.5025 19.7987 30.6634C6.79602 31.879 1.23492 37.5061 0.258301 50.4349C0.0807495 52.9707 -0.177551 55.6031 0.306763 58.0504C0.59729 59.4995 2.27618 60.6748 3.32544 61.9709C4.19708 60.8922 5.74677 59.8778 5.82745 58.7508C6.25525 53.9689 5.76288 49.0905 6.63458 44.3811C6.9978 42.4732 9.76624 39.9937 11.7921 39.5992C17.6356 38.4641 23.6567 38.2709 30.5657 37.6108C24.2782 55.7561 21.7923 73.4345 21.0013 91.7166L15.634 92.2479C15.3434 99.4932 14.7784 106.811 14.8268 114.137C14.8672 119.224 15.8842 124.296 16.2231 129.384C16.3116 132.099 16.2308 134.817 15.981 137.523C15.6824 142.868 17.7728 146.378 23.1078 148.028C26.1872 148.969 29.3874 149.457 32.6077 149.477C49.0164 149.711 65.4252 149.743 81.842 149.815C88.2989 149.815 94.6913 149.815 101.842 149.815C101.842 146.66 101.689 142.57 101.842 138.473C102.156 132.668 104.36 127.124 108.12 122.682C111.879 118.241 116.989 115.144 122.674 113.863C134.103 111.448 146.274 117.083 151.19 127.854C152.917 131.638 153.498 136.049 154.071 140.244C154.539 143.48 154.184 146.861 154.184 150.21ZM474.933 65.3601C463.513 65.3601 452.092 65.3118 440.679 65.3601C438.072 65.3601 436.765 64.8529 436.789 61.8501C436.918 47.7783 436.902 33.7145 436.789 19.6426C436.789 17.0021 437.733 16.1729 440.324 16.181C463.026 16.2454 485.73 16.2454 508.437 16.181C509.91 16.1528 511.369 16.4799 512.688 17.1344C514.008 17.7889 515.149 18.7516 516.016 19.9405C526.799 33.1751 526.904 47.6575 516.5 61.182C515.504 62.5965 514.16 63.7309 512.596 64.4754C511.032 65.22 509.302 65.5497 507.573 65.4325C496.693 65.2635 485.813 65.3601 474.933 65.3601ZM106.386 16.6238C107.225 16.4624 108.07 16.3442 108.921 16.2695C136.201 16.2695 163.482 16.2695 190.763 16.181C193.555 16.181 194.136 17.3563 194.128 19.8117C194.064 33.6179 193.983 47.4321 194.177 61.2383C194.225 64.7563 192.926 65.4245 189.738 65.4084C163.66 65.3118 137.582 65.3601 111.504 65.352C110.245 65.352 108.985 65.191 107.21 65.0703C114.95 48.6477 114.03 32.7323 106.386 16.6238ZM394.334 65.352C383.446 65.352 372.542 65.2715 361.662 65.4084C358.797 65.4084 357.627 64.8126 357.627 61.6489C357.756 47.7058 357.683 33.7547 357.57 19.7875C357.57 17.3 358.151 16.181 360.92 16.189C383.234 16.2749 405.564 16.2749 427.911 16.189C430.332 16.189 431.187 17.0504 431.139 19.4897C431.058 33.5776 431.042 47.6656 431.139 61.7374C431.139 64.6114 430.138 65.4084 427.378 65.3842C416.393 65.2876 405.368 65.352 394.334 65.352ZM315.673 65.352C304.655 65.352 293.63 65.3118 282.581 65.352C280.256 65.352 278.723 65.0863 278.739 62.1883C278.811 47.9795 278.787 33.7708 278.739 19.5621C278.739 17.2678 279.433 16.1407 281.967 16.1488C304.26 16.2186 326.55 16.2186 348.837 16.1488C351.622 16.1488 352.179 17.2597 352.17 19.7392C352.082 33.8191 352.066 47.9151 352.17 61.9628C352.17 64.6919 351.226 65.3681 348.668 65.344C337.715 65.2876 326.698 65.352 315.656 65.352H315.673ZM236.615 16.2454C247.632 16.2454 258.641 16.342 269.651 16.181C272.475 16.1407 273.484 16.986 273.468 19.8036C273.393 33.8755 273.393 47.9447 273.468 62.0112C273.468 64.716 272.362 65.3923 269.844 65.3842C247.67 65.3144 225.501 65.3144 203.338 65.3842C200.973 65.3842 199.988 64.7482 200.012 62.2124C200.109 48.0117 200.109 33.8138 200.012 19.6185C200.012 16.9699 200.949 16.181 203.58 16.2132C214.605 16.35 225.614 16.2695 236.615 16.2615V16.2454ZM47.3538 57.6157C47.3538 45.1458 47.4264 32.6599 47.3054 20.2142C47.3054 17.2195 48.3385 16.1166 51.2925 16.189C55.5864 16.3339 59.8964 16.3178 64.2064 16.189C67.2008 16.0924 68.1936 17.3563 68.1855 20.2544C68.1209 45.4786 68.1209 70.6813 68.1855 95.8625C68.1855 98.6238 67.1282 99.7588 64.3921 99.7025C60.2273 99.6059 56.0464 99.4771 51.8979 99.7025C48.2739 99.9118 47.265 98.4225 47.3054 94.9931C47.4345 82.5474 47.3457 70.0775 47.3538 57.6157ZM72.891 92.3204C72.602 90.9925 72.3945 89.6483 72.2695 88.2953C72.2372 65.3896 72.2211 42.4866 72.2211 19.5863C72.2211 17.2597 73.0282 16.181 75.5384 16.2615C79.7031 16.4064 83.8921 16.028 88.0164 16.4467C89.8405 16.6318 92.2216 17.7749 93.1659 19.2401C99.6228 29.2385 102.964 40.4364 98.5574 51.6988C94.7075 61.5201 88.6702 70.5444 83.1253 79.6412C80.4537 83.9803 76.6844 87.6834 72.891 92.3204Z"/>
</mask>
<path d="M154.184 150.21C190.133 147.916 225.622 149.405 261.095 149.083C296.568 148.761 331.799 148.93 367.207 148.986C370.75 148.986 371.614 147.722 371.356 144.518C370.476 133.779 373.559 124.538 382.655 118.113C390.727 112.358 399.669 111.617 408.604 115.948C417.684 120.351 422.454 127.943 423.132 137.982C423.35 141.298 423.132 144.639 423.132 147.972C423.539 148.192 423.978 148.35 424.432 148.439C442.568 147.916 460.752 147.883 478.824 146.636C489.744 145.887 500.543 143.303 511.383 141.459C516.016 140.654 520.616 139.688 525.233 138.795C532.998 137.289 536 133.634 536 125.584C536 119.289 536 112.985 535.459 106.69V123.169C532.804 123.169 530.221 123.58 527.88 123.008C526.589 122.702 524.878 120.81 524.789 119.53C524.426 114.475 524.636 109.387 524.636 103.832H535.193C535.193 97.867 535.564 92.3848 535.193 86.9428C533.982 70.2519 532.602 53.5611 531.052 36.8702C530.721 33.3361 529.188 29.9228 528.252 26.4048C527.315 22.8869 525.193 20.1256 524.757 16.2212C524.442 13.3634 520.721 10.3365 517.808 8.43664C511.431 4.2666 504.377 4.83012 497.202 6.63338C492.322 7.98983 487.3 8.76802 482.238 8.95185C447.007 9.18531 411.768 9.09676 376.505 9.17726C328.288 9.28997 280.076 9.44024 231.869 9.62808C228.286 9.62808 225.372 9.47512 223.322 5.56269C220.957 1.03844 216.058 0.402473 211.368 0.362222C200.238 0.273669 189.068 0.241468 177.905 0.201217C154.91 0.120714 131.9 -0.0563918 108.913 0.0160606C91.7776 0.0643622 74.8766 1.94007 58.4517 7.2613C49.0757 10.3551 40.896 16.2798 35.0452 24.2152C31.3486 29.1339 28.0797 30.921 22.6075 30.43C21.6661 30.4244 20.7261 30.5025 19.7987 30.6634C6.79602 31.879 1.23492 37.5061 0.258301 50.4349C0.0807495 52.9707 -0.177551 55.6031 0.306763 58.0504C0.59729 59.4995 2.27618 60.6748 3.32544 61.9709C4.19708 60.8922 5.74677 59.8778 5.82745 58.7508C6.25525 53.9689 5.76288 49.0905 6.63458 44.3811C6.9978 42.4732 9.76624 39.9937 11.7921 39.5992C17.6356 38.4641 23.6567 38.2709 30.5657 37.6108C24.2782 55.7561 21.7923 73.4345 21.0013 91.7166L15.634 92.2479C15.3434 99.4932 14.7784 106.811 14.8268 114.137C14.8672 119.224 15.8842 124.296 16.2231 129.384C16.3116 132.099 16.2308 134.817 15.981 137.523C15.6824 142.868 17.7728 146.378 23.1078 148.028C26.1872 148.969 29.3874 149.457 32.6077 149.477C49.0164 149.711 65.4252 149.743 81.842 149.815C88.2989 149.815 94.6913 149.815 101.842 149.815C101.842 146.66 101.689 142.57 101.842 138.473C102.156 132.668 104.36 127.124 108.12 122.682C111.879 118.241 116.989 115.144 122.674 113.863C134.103 111.448 146.274 117.083 151.19 127.854C152.917 131.638 153.498 136.049 154.071 140.244C154.539 143.48 154.184 146.861 154.184 150.21ZM474.933 65.3601C463.513 65.3601 452.092 65.3118 440.679 65.3601C438.072 65.3601 436.765 64.8529 436.789 61.8501C436.918 47.7783 436.902 33.7145 436.789 19.6426C436.789 17.0021 437.733 16.1729 440.324 16.181C463.026 16.2454 485.73 16.2454 508.437 16.181C509.91 16.1528 511.369 16.4799 512.688 17.1344C514.008 17.7889 515.149 18.7516 516.016 19.9405C526.799 33.1751 526.904 47.6575 516.5 61.182C515.504 62.5965 514.16 63.7309 512.596 64.4754C511.032 65.22 509.302 65.5497 507.573 65.4325C496.693 65.2635 485.813 65.3601 474.933 65.3601ZM106.386 16.6238C107.225 16.4624 108.07 16.3442 108.921 16.2695C136.201 16.2695 163.482 16.2695 190.763 16.181C193.555 16.181 194.136 17.3563 194.128 19.8117C194.064 33.6179 193.983 47.4321 194.177 61.2383C194.225 64.7563 192.926 65.4245 189.738 65.4084C163.66 65.3118 137.582 65.3601 111.504 65.352C110.245 65.352 108.985 65.191 107.21 65.0703C114.95 48.6477 114.03 32.7323 106.386 16.6238ZM394.334 65.352C383.446 65.352 372.542 65.2715 361.662 65.4084C358.797 65.4084 357.627 64.8126 357.627 61.6489C357.756 47.7058 357.683 33.7547 357.57 19.7875C357.57 17.3 358.151 16.181 360.92 16.189C383.234 16.2749 405.564 16.2749 427.911 16.189C430.332 16.189 431.187 17.0504 431.139 19.4897C431.058 33.5776 431.042 47.6656 431.139 61.7374C431.139 64.6114 430.138 65.4084 427.378 65.3842C416.393 65.2876 405.368 65.352 394.334 65.352ZM315.673 65.352C304.655 65.352 293.63 65.3118 282.581 65.352C280.256 65.352 278.723 65.0863 278.739 62.1883C278.811 47.9795 278.787 33.7708 278.739 19.5621C278.739 17.2678 279.433 16.1407 281.967 16.1488C304.26 16.2186 326.55 16.2186 348.837 16.1488C351.622 16.1488 352.179 17.2597 352.17 19.7392C352.082 33.8191 352.066 47.9151 352.17 61.9628C352.17 64.6919 351.226 65.3681 348.668 65.344C337.715 65.2876 326.698 65.352 315.656 65.352H315.673ZM236.615 16.2454C247.632 16.2454 258.641 16.342 269.651 16.181C272.475 16.1407 273.484 16.986 273.468 19.8036C273.393 33.8755 273.393 47.9447 273.468 62.0112C273.468 64.716 272.362 65.3923 269.844 65.3842C247.67 65.3144 225.501 65.3144 203.338 65.3842C200.973 65.3842 199.988 64.7482 200.012 62.2124C200.109 48.0117 200.109 33.8138 200.012 19.6185C200.012 16.9699 200.949 16.181 203.58 16.2132C214.605 16.35 225.614 16.2695 236.615 16.2615V16.2454ZM47.3538 57.6157C47.3538 45.1458 47.4264 32.6599 47.3054 20.2142C47.3054 17.2195 48.3385 16.1166 51.2925 16.189C55.5864 16.3339 59.8964 16.3178 64.2064 16.189C67.2008 16.0924 68.1936 17.3563 68.1855 20.2544C68.1209 45.4786 68.1209 70.6813 68.1855 95.8625C68.1855 98.6238 67.1282 99.7588 64.3921 99.7025C60.2273 99.6059 56.0464 99.4771 51.8979 99.7025C48.2739 99.9118 47.265 98.4225 47.3054 94.9931C47.4345 82.5474 47.3457 70.0775 47.3538 57.6157ZM72.891 92.3204C72.602 90.9925 72.3945 89.6483 72.2695 88.2953C72.2372 65.3896 72.2211 42.4866 72.2211 19.5863C72.2211 17.2597 73.0282 16.181 75.5384 16.2615C79.7031 16.4064 83.8921 16.028 88.0164 16.4467C89.8405 16.6318 92.2216 17.7749 93.1659 19.2401C99.6228 29.2385 102.964 40.4364 98.5574 51.6988C94.7075 61.5201 88.6702 70.5444 83.1253 79.6412C80.4537 83.9803 76.6844 87.6834 72.891 92.3204Z" stroke="#2844DA" stroke-width="6" mask="url(#path-1-inside-1_194_6724)"/>
<path d="M128.199 162.5L128.207 162.5L128.215 162.5C140.502 162.538 151.011 151.996 151.037 139.554C151.004 133.456 148.545 127.62 144.199 123.329C139.853 119.036 133.975 116.64 127.856 116.667C121.761 116.713 115.935 119.171 111.658 123.501C107.381 127.831 105.004 133.677 105.049 139.754C105.094 145.83 107.558 151.641 111.899 155.907C116.24 160.173 122.104 162.545 128.199 162.5ZM142.632 139.351L142.632 139.362L142.632 139.373C142.723 147.291 135.753 154.395 127.865 154.359L127.862 154.359C123.935 154.335 120.176 152.76 117.409 149.976C114.643 147.194 113.094 143.431 113.103 139.512C113.098 137.573 113.481 135.652 114.229 133.863C114.977 132.072 116.075 130.449 117.46 129.087L118.512 130.157L117.46 129.087C118.844 127.726 120.487 126.653 122.291 125.933C124.095 125.212 126.025 124.858 127.968 124.89C131.809 124.946 135.48 126.482 138.213 129.176C140.947 131.871 142.53 135.517 142.632 139.351Z" stroke="#2844DA" stroke-width="3"/>
<path d="M397.417 116.684L397.41 116.684C394.378 116.669 391.374 117.255 388.573 118.41C385.772 119.564 383.229 121.263 381.093 123.408C378.958 125.552 377.271 128.099 376.133 130.899C374.994 133.7 374.426 136.698 374.461 139.72H374.461L374.461 139.731C374.514 152.189 385.029 162.598 397.403 162.485V162.485H397.417C403.509 162.485 409.35 160.071 413.656 155.776C417.962 151.481 420.381 145.657 420.381 139.584C420.381 133.512 417.962 127.688 413.656 123.393C409.35 119.098 403.509 116.684 397.417 116.684ZM412.339 139.572L412.34 139.597L412.339 139.623C412.24 143.45 410.69 147.097 408.001 149.827C405.312 152.557 401.685 154.167 397.853 154.334L397.825 154.335L397.797 154.335C393.875 154.357 390.1 152.841 387.287 150.112C384.474 147.384 382.848 143.661 382.761 139.746H382.761L382.761 139.733C382.735 137.791 383.096 135.862 383.824 134.06C384.552 132.258 385.632 130.619 387.001 129.238C388.37 127.857 390 126.761 391.797 126.015C393.593 125.269 395.52 124.887 397.465 124.89C401.383 124.881 405.147 126.419 407.934 129.168C410.722 131.919 412.306 135.659 412.339 139.572Z" stroke="#2844DA" stroke-width="3"/>
<path d="M131.869 135.649C130.839 134.563 129.425 133.919 127.927 133.855C126.427 133.901 124.999 134.511 123.932 135.563C122.864 136.615 122.236 138.03 122.173 139.523C122.211 140.954 122.784 142.32 123.78 143.353C124.785 144.394 126.147 145.02 127.595 145.106C128.336 145.14 129.076 145.028 129.772 144.775C130.47 144.521 131.11 144.131 131.655 143.628C132.2 143.124 132.639 142.518 132.946 141.844C133.252 141.171 133.42 140.445 133.442 139.708C133.472 138.202 132.907 136.745 131.869 135.649Z" stroke="#2844DA" stroke-width="3"/>
<path d="M391.999 139.664L392 139.68L392 139.697C392.011 140.431 392.17 141.155 392.466 141.827C392.763 142.499 393.191 143.105 393.727 143.61C394.262 144.114 394.894 144.507 395.584 144.765C396.275 145.023 397.01 145.14 397.747 145.11C398.483 145.08 399.207 144.903 399.873 144.59C400.54 144.277 401.138 143.834 401.63 143.288C402.122 142.741 402.499 142.102 402.74 141.409C402.981 140.715 403.079 139.98 403.031 139.248L403.03 139.234L403.029 139.219C402.962 137.785 402.344 136.43 401.302 135.437C400.264 134.448 398.885 133.893 397.448 133.887C396.712 133.904 395.986 134.067 395.313 134.365L394.713 133.01L395.313 134.365C394.635 134.665 394.024 135.097 393.516 135.635C393.007 136.173 392.611 136.806 392.351 137.498C392.09 138.189 391.971 138.926 391.999 139.664Z" stroke="#2844DA" stroke-width="3"/>
</svg>
