<svg width="1198" height="171" viewBox="0 0 1198 171" fill="none" xmlns="http://www.w3.org/2000/svg">
<mask id="path-1-inside-1_272_107" fill="white">
<path d="M158.145 155.705C195.023 153.327 231.438 154.871 267.82 154.537C304.201 154.203 988.537 154.354 1024.83 154.437C1028.45 154.437 1029.35 153.127 1029.08 149.806C1028.17 138.674 1031.34 129.094 1040.67 122.435C1048.99 116.468 1058.12 115.7 1067.29 120.19C1076.6 124.755 1081.5 132.624 1082.19 143.03C1082.41 146.468 1082.19 149.931 1082.19 153.386C1082.61 153.614 1083.06 153.777 1083.52 153.87C1102.13 153.327 1120.78 153.294 1139.32 152C1150.52 151.224 1161.6 148.546 1172.72 146.635C1177.47 145.8 1182.19 144.799 1186.93 143.872C1194.89 142.312 1197.97 138.482 1197.97 130.17C1197.97 123.645 1197.97 117.111 1197.41 110.585V127.675C1194.68 127.675 1192.04 128.101 1189.63 127.508C1188.31 127.191 1186.55 125.23 1186.46 123.903C1186.09 118.663 1186.31 113.389 1186.31 107.631H1197.18C1197.18 101.481 1197.51 95.7981 1197.11 90.1738C1195.89 72.8611 1194.48 55.554 1192.89 38.2525C1192.54 34.5891 1190.97 31.0509 1190.02 27.4043C1189.07 23.7576 1186.87 20.862 1186.43 16.8147C1186.1 13.8523 1182.29 10.7147 1179.3 8.74533C1172.76 4.42273 1165.53 5.02356 1158.17 6.8761C1153.16 8.28282 1148 9.08949 1142.81 9.2794C1106.67 9.5214 1070.52 9.4296 1034.34 9.51305C984.886 9.62988 287.286 9.78843 237.822 9.98036C234.154 9.98036 231.198 9.82181 229.062 5.76624C226.636 1.07647 221.61 0.417234 216.791 0.37551C205.406 0.283717 193.955 0.250338 182.504 0.208614C158.915 0.125166 135.309 -0.0584192 111.728 0.0166839C94.142 0.0667526 76.8123 2.01109 59.9546 7.5103C50.3363 10.7173 41.9452 16.8587 35.9431 25.0844C32.1509 30.1831 28.8059 32.0356 23.1922 31.5266C22.2237 31.5208 21.2567 31.6018 20.3025 31.7686C6.97197 33.0287 1.25889 38.8617 0.265315 52.2634C0.0748787 54.892 -0.190076 57.6207 0.314994 60.1576C0.579948 61.6596 2.30215 62.878 3.38681 64.2549C4.28103 63.1366 5.87076 62.0852 5.95356 60.9169C6.39239 55.9601 5.88732 50.9032 6.78154 46.0215C7.14585 44.0438 9.99411 41.4736 12.0723 41.0647C18.0669 39.8881 24.2437 39.6878 31.3312 39.0035C24.8812 57.7543 22.3559 76.0794 21.5279 95.0304L16.0218 95.5812C15.7155 103.091 15.1442 110.677 15.1938 118.271C15.2352 123.545 16.2785 128.802 16.6263 134.076C16.717 136.89 16.6341 139.708 16.3779 142.512C16.0715 148.053 18.216 151.692 23.6889 153.402C26.8477 154.377 30.1307 154.883 33.4343 154.904C50.2589 155.146 67.0918 155.18 83.9412 155.255C90.5651 155.255 97.131 155.255 104.467 155.255C104.467 151.984 104.301 147.744 104.467 143.497C104.794 137.48 107.059 131.735 110.919 127.133C114.778 122.531 120.022 119.323 125.854 117.995C137.57 115.492 150.064 121.333 155.098 132.499C156.878 136.421 157.466 140.993 158.062 145.341C158.534 148.729 158.145 152.234 158.145 155.705ZM1133.57 67.7513C1121.85 67.7513 1110.14 67.7012 1098.43 67.7513C1095.75 67.7513 1094.41 67.2256 1094.44 64.113C1094.57 49.5263 1094.55 34.948 1094.44 20.3613C1094.44 17.6242 1095.4 16.7647 1098.07 16.773C1121.36 16.8398 1144.65 16.8398 1167.94 16.773C1169.45 16.7431 1170.94 17.0818 1172.3 17.7603C1173.65 18.4389 1174.82 19.4371 1175.71 20.67C1186.74 34.3471 1186.85 49.3594 1176.17 63.3536C1175.16 64.8123 1173.79 65.9834 1172.19 66.7549C1170.6 67.5264 1168.83 67.8723 1167.07 67.7597C1155.86 67.6512 1144.73 67.7513 1133.57 67.7513ZM109.137 17.232C109.996 17.0642 110.864 16.9416 111.737 16.8648C139.722 16.8648 167.708 16.8648 195.694 16.773C198.559 16.773 199.155 17.9914 199.147 20.5365C199.072 34.8478 198.998 49.1675 199.196 63.4788C199.246 67.1255 197.913 67.8181 194.643 67.8014C167.89 67.7012 141.138 67.7513 114.386 67.743C113.095 67.743 111.803 67.5761 109.973 67.4509C117.922 50.4275 116.978 33.9299 109.137 17.232ZM404.528 67.743C393.35 67.743 382.172 67.6595 371.003 67.8014C368.072 67.8014 366.863 67.1839 366.863 63.9044C366.995 49.4512 366.921 34.9897 366.805 20.5115C366.805 17.9329 367.393 16.773 370.241 16.7814C393.132 16.8704 416.04 16.8704 438.964 16.7814C441.448 16.7814 442.317 17.6743 442.276 20.2027C442.193 34.8061 442.176 49.4095 442.276 63.9962C442.276 66.9753 441.249 67.8014 438.417 67.7764C427.157 67.6762 415.838 67.743 404.528 67.743ZM485.38 67.743C474.211 67.743 463.025 67.6595 451.864 67.8014C448.924 67.8014 447.724 67.1839 447.724 63.9044C447.856 49.4512 447.782 34.9897 447.666 20.5115C447.666 17.9329 448.262 16.773 451.102 16.7814C473.998 16.8704 496.906 16.8704 519.824 16.7814C522.308 16.7814 523.186 17.6743 523.136 20.2027C523.054 34.8061 523.037 49.4095 523.136 63.9962C523.136 66.9753 522.11 67.8014 519.278 67.7764C508.009 67.6762 496.699 67.743 485.38 67.743ZM566.241 67.743C555.063 67.743 543.886 67.6595 532.716 67.8014C529.777 67.8014 528.576 67.1839 528.576 63.9044C528.709 49.4512 528.634 34.9897 528.527 20.5115C528.527 17.9329 529.114 16.773 531.963 16.7814C554.854 16.8704 577.761 16.8704 600.685 16.7814C603.169 16.7814 604.047 17.6743 603.997 20.2027C603.914 34.8061 603.898 49.4095 603.997 63.9962C603.997 66.9753 602.97 67.8014 600.139 67.7764C588.862 67.6762 577.551 67.743 566.241 67.743ZM647.094 67.743C635.916 67.743 624.738 67.6595 613.569 67.8014C610.629 67.8014 609.429 67.1839 609.429 63.9044C609.569 49.4512 609.495 34.9897 609.379 20.5115C609.379 17.9329 609.967 16.773 612.815 16.7814C635.712 16.8704 658.619 16.8704 681.538 16.7814C684.022 16.7814 684.85 17.6743 684.85 20.2027C684.775 34.8061 684.759 49.4095 684.85 63.9962C684.85 66.9753 683.815 67.8014 680.991 67.7764C669.722 67.6762 658.404 67.743 647.094 67.743ZM727.946 67.743C716.777 67.743 705.591 67.6595 694.421 67.8014C691.49 67.8014 690.281 67.1839 690.281 63.9044C690.414 49.4512 690.339 34.9897 690.223 20.5115C690.223 17.9329 690.819 16.773 693.659 16.7814C716.556 16.8704 739.463 16.8704 762.382 16.7814C764.866 16.7814 765.744 17.6743 765.694 20.2027C765.611 34.8061 765.595 49.4095 765.694 63.9962C765.694 66.9753 764.667 67.8014 761.836 67.7764C750.575 67.6762 739.265 67.743 727.946 67.743ZM808.807 67.743C797.629 67.743 786.451 67.6595 775.282 67.8014C772.343 67.8014 771.142 67.1839 771.142 63.9044C771.275 49.4512 771.2 34.9897 771.092 20.5115C771.092 17.9329 771.68 16.773 774.529 16.7814C797.419 16.8704 820.313 16.8704 843.21 16.7814C845.694 16.7814 846.571 17.6743 846.522 20.2027C846.439 34.8061 846.422 49.4095 846.522 63.9962C846.522 66.9753 845.495 67.8014 842.663 67.7764C831.427 67.6762 820.117 67.743 808.807 67.743ZM889.66 67.743C878.482 67.743 867.304 67.6595 856.135 67.8014C853.195 67.8014 851.995 67.1839 851.995 63.9044C852.135 49.4512 852.061 34.9897 851.945 20.5115C851.945 17.9329 852.533 16.773 855.381 16.7814C878.278 16.8704 901.185 16.8704 924.104 16.7814C926.588 16.7814 927.416 17.6743 927.416 20.2027C927.341 34.8061 927.324 49.4095 927.416 63.9962C927.416 66.9753 926.381 67.8014 923.557 67.7764C912.288 67.6762 900.97 67.743 889.66 67.743ZM970.512 67.743C959.343 67.743 948.157 67.6595 936.987 67.8014C934.056 67.8014 932.847 67.1839 932.847 63.9044C932.98 49.4512 932.905 34.9897 932.789 20.5115C932.789 17.9329 933.385 16.773 936.225 16.7814C959.122 16.8704 982.029 16.8704 1004.95 16.7814C1007.43 16.7814 1008.26 17.6743 1008.26 20.2027C1008.18 34.8061 1008.16 49.4095 1008.26 63.9962C1008.26 66.9753 1007.23 67.8014 1004.4 67.7764C993.141 67.6762 981.822 67.743 970.512 67.743ZM1051.36 67.743C1040.2 67.743 1029.01 67.6595 1017.85 67.8014C1014.91 67.8014 1013.71 67.1839 1013.71 63.9044C1013.84 49.4512 1013.77 34.9897 1013.66 20.5115C1013.66 17.9329 1014.25 16.773 1017.09 16.7814C1039.99 16.8704 1062.9 16.8704 1085.81 16.7814C1088.29 16.7814 1089.17 17.6743 1089.12 20.2027C1089.04 34.8061 1089.02 49.4095 1089.12 63.9962C1089.12 66.9753 1088.09 67.8014 1085.26 67.7764C1073.99 67.6762 1062.68 67.743 1051.36 67.743ZM323.833 67.743C312.531 67.743 301.22 67.7012 289.885 67.743C287.501 67.743 285.928 67.4676 285.944 64.4635C286.019 49.7349 285.994 35.0064 285.944 20.2778C285.944 17.8996 286.656 16.7313 289.256 16.7396C312.125 16.812 334.994 16.812 357.863 16.7396C360.719 16.7396 361.291 17.8912 361.274 20.4614C361.191 35.0564 361.175 49.6682 361.274 64.2298C361.274 67.0587 360.297 67.7597 357.672 67.7346C346.445 67.6762 335.135 67.743 323.833 67.743ZM242.732 16.8398C254.025 16.8398 265.327 16.9399 276.613 16.773C279.519 16.7313 280.546 17.6075 280.537 20.5282C280.466 35.1149 280.466 49.6988 280.537 64.2799C280.537 67.0837 279.403 67.7847 276.82 67.7764C254.078 67.704 231.336 67.704 208.594 67.7764C206.168 67.7764 205.158 67.1171 205.174 64.4885C205.279 49.7683 205.279 35.0509 205.174 20.3362C205.174 17.5908 206.127 16.773 208.826 16.8064C220.153 16.9483 231.438 16.8648 242.732 16.8565V16.8398ZM48.5781 59.7236C48.5781 46.7976 48.6526 33.8548 48.5201 20.9538C48.5201 17.8495 49.5882 16.7063 52.6104 16.7814C57.0153 16.9316 61.4367 16.9149 65.8581 16.7814C68.9382 16.6812 69.998 17.9914 69.9483 20.9955C69.8821 47.1425 69.8821 73.2672 69.9483 99.3697C69.9483 102.232 68.872 103.409 66.0651 103.35C61.7927 103.25 57.5038 103.117 53.2479 103.35C49.5303 103.567 48.487 102.023 48.5284 98.4685C48.6526 85.5674 48.5615 72.6414 48.5781 59.7236ZM74.7755 95.698C74.4749 94.3223 74.2619 92.9287 74.1379 91.5256C74.1048 67.7819 74.0883 44.0327 74.0883 20.2778C74.0883 17.8662 74.9162 16.748 77.4913 16.8314C81.7554 16.9816 86.0609 16.5894 90.2919 17.0234C92.1631 17.2153 94.6057 18.4002 95.5744 19.919C102.198 30.2832 105.626 41.8908 101.105 53.5652C97.1559 63.7458 90.9625 73.1003 85.2826 82.5299C82.5337 87.0528 78.6587 90.8914 74.7755 95.698Z"/>
</mask>
<path d="M158.145 155.705C195.023 153.327 231.438 154.871 267.82 154.537C304.201 154.203 988.537 154.354 1024.83 154.437C1028.45 154.437 1029.35 153.127 1029.08 149.806C1028.17 138.674 1031.34 129.094 1040.67 122.435C1048.99 116.468 1058.12 115.7 1067.29 120.19C1076.6 124.755 1081.5 132.624 1082.19 143.03C1082.41 146.468 1082.19 149.931 1082.19 153.386C1082.61 153.614 1083.06 153.777 1083.52 153.87C1102.13 153.327 1120.78 153.294 1139.32 152C1150.52 151.224 1161.6 148.546 1172.72 146.635C1177.47 145.8 1182.19 144.799 1186.93 143.872C1194.89 142.312 1197.97 138.482 1197.97 130.17C1197.97 123.645 1197.97 117.111 1197.41 110.585V127.675C1194.68 127.675 1192.04 128.101 1189.63 127.508C1188.31 127.191 1186.55 125.23 1186.46 123.903C1186.09 118.663 1186.31 113.389 1186.31 107.631H1197.18C1197.18 101.481 1197.51 95.7981 1197.11 90.1738C1195.89 72.8611 1194.48 55.554 1192.89 38.2525C1192.54 34.5891 1190.97 31.0509 1190.02 27.4043C1189.07 23.7576 1186.87 20.862 1186.43 16.8147C1186.1 13.8523 1182.29 10.7147 1179.3 8.74533C1172.76 4.42273 1165.53 5.02356 1158.17 6.8761C1153.16 8.28282 1148 9.08949 1142.81 9.2794C1106.67 9.5214 1070.52 9.4296 1034.34 9.51305C984.886 9.62988 287.286 9.78843 237.822 9.98036C234.154 9.98036 231.198 9.82181 229.062 5.76624C226.636 1.07647 221.61 0.417234 216.791 0.37551C205.406 0.283717 193.955 0.250338 182.504 0.208614C158.915 0.125166 135.309 -0.0584192 111.728 0.0166839C94.142 0.0667526 76.8123 2.01109 59.9546 7.5103C50.3363 10.7173 41.9452 16.8587 35.9431 25.0844C32.1509 30.1831 28.8059 32.0356 23.1922 31.5266C22.2237 31.5208 21.2567 31.6018 20.3025 31.7686C6.97197 33.0287 1.25889 38.8617 0.265315 52.2634C0.0748787 54.892 -0.190076 57.6207 0.314994 60.1576C0.579948 61.6596 2.30215 62.878 3.38681 64.2549C4.28103 63.1366 5.87076 62.0852 5.95356 60.9169C6.39239 55.9601 5.88732 50.9032 6.78154 46.0215C7.14585 44.0438 9.99411 41.4736 12.0723 41.0647C18.0669 39.8881 24.2437 39.6878 31.3312 39.0035C24.8812 57.7543 22.3559 76.0794 21.5279 95.0304L16.0218 95.5812C15.7155 103.091 15.1442 110.677 15.1938 118.271C15.2352 123.545 16.2785 128.802 16.6263 134.076C16.717 136.89 16.6341 139.708 16.3779 142.512C16.0715 148.053 18.216 151.692 23.6889 153.402C26.8477 154.377 30.1307 154.883 33.4343 154.904C50.2589 155.146 67.0918 155.18 83.9412 155.255C90.5651 155.255 97.131 155.255 104.467 155.255C104.467 151.984 104.301 147.744 104.467 143.497C104.794 137.48 107.059 131.735 110.919 127.133C114.778 122.531 120.022 119.323 125.854 117.995C137.57 115.492 150.064 121.333 155.098 132.499C156.878 136.421 157.466 140.993 158.062 145.341C158.534 148.729 158.145 152.234 158.145 155.705ZM1133.57 67.7513C1121.85 67.7513 1110.14 67.7012 1098.43 67.7513C1095.75 67.7513 1094.41 67.2256 1094.44 64.113C1094.57 49.5263 1094.55 34.948 1094.44 20.3613C1094.44 17.6242 1095.4 16.7647 1098.07 16.773C1121.36 16.8398 1144.65 16.8398 1167.94 16.773C1169.45 16.7431 1170.94 17.0818 1172.3 17.7603C1173.65 18.4389 1174.82 19.4371 1175.71 20.67C1186.74 34.3471 1186.85 49.3594 1176.17 63.3536C1175.16 64.8123 1173.79 65.9834 1172.19 66.7549C1170.6 67.5264 1168.83 67.8723 1167.07 67.7597C1155.86 67.6512 1144.73 67.7513 1133.57 67.7513ZM109.137 17.232C109.996 17.0642 110.864 16.9416 111.737 16.8648C139.722 16.8648 167.708 16.8648 195.694 16.773C198.559 16.773 199.155 17.9914 199.147 20.5365C199.072 34.8478 198.998 49.1675 199.196 63.4788C199.246 67.1255 197.913 67.8181 194.643 67.8014C167.89 67.7012 141.138 67.7513 114.386 67.743C113.095 67.743 111.803 67.5761 109.973 67.4509C117.922 50.4275 116.978 33.9299 109.137 17.232ZM404.528 67.743C393.35 67.743 382.172 67.6595 371.003 67.8014C368.072 67.8014 366.863 67.1839 366.863 63.9044C366.995 49.4512 366.921 34.9897 366.805 20.5115C366.805 17.9329 367.393 16.773 370.241 16.7814C393.132 16.8704 416.04 16.8704 438.964 16.7814C441.448 16.7814 442.317 17.6743 442.276 20.2027C442.193 34.8061 442.176 49.4095 442.276 63.9962C442.276 66.9753 441.249 67.8014 438.417 67.7764C427.157 67.6762 415.838 67.743 404.528 67.743ZM485.38 67.743C474.211 67.743 463.025 67.6595 451.864 67.8014C448.924 67.8014 447.724 67.1839 447.724 63.9044C447.856 49.4512 447.782 34.9897 447.666 20.5115C447.666 17.9329 448.262 16.773 451.102 16.7814C473.998 16.8704 496.906 16.8704 519.824 16.7814C522.308 16.7814 523.186 17.6743 523.136 20.2027C523.054 34.8061 523.037 49.4095 523.136 63.9962C523.136 66.9753 522.11 67.8014 519.278 67.7764C508.009 67.6762 496.699 67.743 485.38 67.743ZM566.241 67.743C555.063 67.743 543.886 67.6595 532.716 67.8014C529.777 67.8014 528.576 67.1839 528.576 63.9044C528.709 49.4512 528.634 34.9897 528.527 20.5115C528.527 17.9329 529.114 16.773 531.963 16.7814C554.854 16.8704 577.761 16.8704 600.685 16.7814C603.169 16.7814 604.047 17.6743 603.997 20.2027C603.914 34.8061 603.898 49.4095 603.997 63.9962C603.997 66.9753 602.97 67.8014 600.139 67.7764C588.862 67.6762 577.551 67.743 566.241 67.743ZM647.094 67.743C635.916 67.743 624.738 67.6595 613.569 67.8014C610.629 67.8014 609.429 67.1839 609.429 63.9044C609.569 49.4512 609.495 34.9897 609.379 20.5115C609.379 17.9329 609.967 16.773 612.815 16.7814C635.712 16.8704 658.619 16.8704 681.538 16.7814C684.022 16.7814 684.85 17.6743 684.85 20.2027C684.775 34.8061 684.759 49.4095 684.85 63.9962C684.85 66.9753 683.815 67.8014 680.991 67.7764C669.722 67.6762 658.404 67.743 647.094 67.743ZM727.946 67.743C716.777 67.743 705.591 67.6595 694.421 67.8014C691.49 67.8014 690.281 67.1839 690.281 63.9044C690.414 49.4512 690.339 34.9897 690.223 20.5115C690.223 17.9329 690.819 16.773 693.659 16.7814C716.556 16.8704 739.463 16.8704 762.382 16.7814C764.866 16.7814 765.744 17.6743 765.694 20.2027C765.611 34.8061 765.595 49.4095 765.694 63.9962C765.694 66.9753 764.667 67.8014 761.836 67.7764C750.575 67.6762 739.265 67.743 727.946 67.743ZM808.807 67.743C797.629 67.743 786.451 67.6595 775.282 67.8014C772.343 67.8014 771.142 67.1839 771.142 63.9044C771.275 49.4512 771.2 34.9897 771.092 20.5115C771.092 17.9329 771.68 16.773 774.529 16.7814C797.419 16.8704 820.313 16.8704 843.21 16.7814C845.694 16.7814 846.571 17.6743 846.522 20.2027C846.439 34.8061 846.422 49.4095 846.522 63.9962C846.522 66.9753 845.495 67.8014 842.663 67.7764C831.427 67.6762 820.117 67.743 808.807 67.743ZM889.66 67.743C878.482 67.743 867.304 67.6595 856.135 67.8014C853.195 67.8014 851.995 67.1839 851.995 63.9044C852.135 49.4512 852.061 34.9897 851.945 20.5115C851.945 17.9329 852.533 16.773 855.381 16.7814C878.278 16.8704 901.185 16.8704 924.104 16.7814C926.588 16.7814 927.416 17.6743 927.416 20.2027C927.341 34.8061 927.324 49.4095 927.416 63.9962C927.416 66.9753 926.381 67.8014 923.557 67.7764C912.288 67.6762 900.97 67.743 889.66 67.743ZM970.512 67.743C959.343 67.743 948.157 67.6595 936.987 67.8014C934.056 67.8014 932.847 67.1839 932.847 63.9044C932.98 49.4512 932.905 34.9897 932.789 20.5115C932.789 17.9329 933.385 16.773 936.225 16.7814C959.122 16.8704 982.029 16.8704 1004.95 16.7814C1007.43 16.7814 1008.26 17.6743 1008.26 20.2027C1008.18 34.8061 1008.16 49.4095 1008.26 63.9962C1008.26 66.9753 1007.23 67.8014 1004.4 67.7764C993.141 67.6762 981.822 67.743 970.512 67.743ZM1051.36 67.743C1040.2 67.743 1029.01 67.6595 1017.85 67.8014C1014.91 67.8014 1013.71 67.1839 1013.71 63.9044C1013.84 49.4512 1013.77 34.9897 1013.66 20.5115C1013.66 17.9329 1014.25 16.773 1017.09 16.7814C1039.99 16.8704 1062.9 16.8704 1085.81 16.7814C1088.29 16.7814 1089.17 17.6743 1089.12 20.2027C1089.04 34.8061 1089.02 49.4095 1089.12 63.9962C1089.12 66.9753 1088.09 67.8014 1085.26 67.7764C1073.99 67.6762 1062.68 67.743 1051.36 67.743ZM323.833 67.743C312.531 67.743 301.22 67.7012 289.885 67.743C287.501 67.743 285.928 67.4676 285.944 64.4635C286.019 49.7349 285.994 35.0064 285.944 20.2778C285.944 17.8996 286.656 16.7313 289.256 16.7396C312.125 16.812 334.994 16.812 357.863 16.7396C360.719 16.7396 361.291 17.8912 361.274 20.4614C361.191 35.0564 361.175 49.6682 361.274 64.2298C361.274 67.0587 360.297 67.7597 357.672 67.7346C346.445 67.6762 335.135 67.743 323.833 67.743ZM242.732 16.8398C254.025 16.8398 265.327 16.9399 276.613 16.773C279.519 16.7313 280.546 17.6075 280.537 20.5282C280.466 35.1149 280.466 49.6988 280.537 64.2799C280.537 67.0837 279.403 67.7847 276.82 67.7764C254.078 67.704 231.336 67.704 208.594 67.7764C206.168 67.7764 205.158 67.1171 205.174 64.4885C205.279 49.7683 205.279 35.0509 205.174 20.3362C205.174 17.5908 206.127 16.773 208.826 16.8064C220.153 16.9483 231.438 16.8648 242.732 16.8565V16.8398ZM48.5781 59.7236C48.5781 46.7976 48.6526 33.8548 48.5201 20.9538C48.5201 17.8495 49.5882 16.7063 52.6104 16.7814C57.0153 16.9316 61.4367 16.9149 65.8581 16.7814C68.9382 16.6812 69.998 17.9914 69.9483 20.9955C69.8821 47.1425 69.8821 73.2672 69.9483 99.3697C69.9483 102.232 68.872 103.409 66.0651 103.35C61.7927 103.25 57.5038 103.117 53.2479 103.35C49.5303 103.567 48.487 102.023 48.5284 98.4685C48.6526 85.5674 48.5615 72.6414 48.5781 59.7236ZM74.7755 95.698C74.4749 94.3223 74.2619 92.9287 74.1379 91.5256C74.1048 67.7819 74.0883 44.0327 74.0883 20.2778C74.0883 17.8662 74.9162 16.748 77.4913 16.8314C81.7554 16.9816 86.0609 16.5894 90.2919 17.0234C92.1631 17.2153 94.6057 18.4002 95.5744 19.919C102.198 30.2832 105.626 41.8908 101.105 53.5652C97.1559 63.7458 90.9625 73.1003 85.2826 82.5299C82.5337 87.0528 78.6587 90.8914 74.7755 95.698Z" stroke="#2844DA" stroke-width="6" mask="url(#path-1-inside-1_272_107)"/>
<path d="M131.531 168.501L131.523 168.501L131.515 168.501C125.256 168.547 119.233 166.087 114.771 161.656C110.309 157.225 107.774 151.186 107.727 144.868C107.681 138.549 110.127 132.473 114.523 127.976C118.919 123.479 124.905 120.928 131.163 120.881C137.444 120.852 143.481 123.339 147.947 127.797C152.412 132.255 154.941 138.32 154.973 144.66C154.955 157.601 144.143 168.54 131.531 168.501ZM146.282 144.474L146.282 144.462L146.282 144.45C146.176 140.496 144.558 136.734 141.763 133.95C138.968 131.165 135.212 129.575 131.277 129.514C129.287 129.482 127.312 129.85 125.465 130.596C123.619 131.342 121.939 132.451 120.524 133.858C119.109 135.265 117.988 136.942 117.224 138.789C116.461 140.636 116.07 142.616 116.075 144.616C116.066 148.657 117.645 152.539 120.469 155.413C123.295 158.289 127.138 159.922 131.159 159.951L131.163 159.951C139.248 159.989 146.374 152.636 146.282 144.474Z" stroke="#2844DA" stroke-width="3"/>
<path d="M1055.86 120.897H1055.86H1055.92C1062.17 120.897 1068.17 123.4 1072.6 127.861C1077.03 132.322 1079.52 138.376 1079.52 144.69C1079.52 151.004 1077.03 157.057 1072.6 161.518C1068.17 165.979 1062.17 168.483 1055.92 168.483V168.483L1055.91 168.483C1043.2 168.6 1032.39 157.801 1032.34 144.85H1032.34L1032.34 144.839C1032.3 141.702 1032.88 138.589 1034.05 135.681C1035.22 132.773 1036.95 130.129 1039.14 127.902C1041.32 125.675 1043.93 123.909 1046.8 122.707C1049.67 121.504 1052.75 120.889 1055.86 120.897ZM1071.13 144.736L1071.13 144.712L1071.13 144.687C1071.1 140.648 1069.49 136.783 1066.63 133.938C1063.78 131.093 1059.93 129.501 1055.91 129.513C1053.92 129.515 1051.95 129.915 1050.11 130.691C1048.28 131.466 1046.61 132.6 1045.22 134.027C1043.82 135.454 1042.72 137.146 1041.98 139.004C1041.23 140.861 1040.86 142.849 1040.89 144.851L1040.89 144.858L1040.89 144.865C1040.98 148.898 1042.64 152.736 1045.51 155.554C1048.38 158.373 1052.23 159.947 1056.25 159.933L1056.28 159.933L1056.31 159.932C1060.23 159.76 1063.95 158.093 1066.7 155.272C1069.45 152.45 1071.03 148.685 1071.13 144.736Z" stroke="#2844DA" stroke-width="3"/>
<path d="M127.106 140.478C128.209 139.38 129.681 138.745 131.226 138.698C132.768 138.765 134.227 139.434 135.292 140.569C136.367 141.714 136.953 143.241 136.922 144.821C136.9 145.596 136.724 146.358 136.407 147.063C136.088 147.77 135.633 148.405 135.069 148.931C134.505 149.457 133.843 149.863 133.122 150.127C132.404 150.391 131.641 150.507 130.878 150.47C129.388 150.38 127.985 149.728 126.947 148.64C125.917 147.56 125.323 146.129 125.284 144.628C125.349 143.061 126.001 141.578 127.106 140.478Z" stroke="#2844DA" stroke-width="3"/>
<path d="M1050.26 144.818L1050.26 144.802L1050.26 144.786C1050.24 144.011 1050.36 143.239 1050.63 142.513C1050.9 141.787 1051.31 141.124 1051.84 140.561C1052.36 139.998 1053 139.547 1053.69 139.233C1054.39 138.921 1055.14 138.751 1055.89 138.731C1057.37 138.737 1058.8 139.315 1059.87 140.35C1060.95 141.389 1061.59 142.809 1061.66 144.316L1061.66 144.331L1061.66 144.347C1061.71 145.115 1061.61 145.886 1061.36 146.613C1061.11 147.341 1060.72 148.01 1060.21 148.581C1059.7 149.152 1059.08 149.615 1058.39 149.941C1057.7 150.267 1056.96 150.451 1056.2 150.482C1055.44 150.514 1054.68 150.391 1053.97 150.123C1053.26 149.854 1052.61 149.445 1052.05 148.917C1051.5 148.39 1051.06 147.756 1050.75 147.052L1049.39 147.645L1050.75 147.052C1050.44 146.347 1050.28 145.588 1050.26 144.818Z" stroke="#2844DA" stroke-width="3"/>
</svg>
