<svg width="730" height="160" viewBox="0 0 730 160" fill="none" xmlns="http://www.w3.org/2000/svg">
<mask id="path-1-inside-1_188_5953" fill="white">
<path d="M144.504 146.181C178.202 143.948 211.476 145.398 244.72 145.084C277.964 144.771 538.61 144.912 571.763 144.99C575.084 144.99 575.893 143.76 575.651 140.642C574.827 130.191 577.717 121.198 586.243 114.946C593.847 109.344 602.23 108.624 610.552 112.815C619.063 117.1 623.535 124.488 624.17 134.257C624.375 137.485 624.17 140.736 624.17 143.98C624.552 144.194 624.962 144.347 625.388 144.434C642.388 143.925 659.434 143.894 676.374 142.679C686.61 141.951 696.733 139.436 706.894 137.642C711.236 136.858 715.549 135.918 719.876 135.049C727.147 133.584 729.962 129.988 729.962 122.185C729.962 116.058 729.962 109.924 729.455 103.798V119.866C726.966 119.866 724.545 120.265 722.35 119.709C721.14 119.411 719.536 117.57 719.445 116.325C719.112 111.405 719.309 106.453 719.309 101.048H729.243C729.243 95.2739 729.553 89.9387 729.19 84.6584C728.06 68.4048 726.771 52.1565 725.324 35.9134C725.014 32.4741 723.576 29.1524 722.698 25.7288C721.821 22.3052 719.869 19.5867 719.498 15.787C719.203 13.0059 715.715 10.0602 712.984 8.21126C706.969 4.15309 700.357 4.70149 693.631 6.45638C689.057 7.77644 684.349 8.53375 679.604 8.71266C646.572 8.93985 613.548 8.85367 580.493 8.93202C535.296 9.0417 262.537 9.19055 217.34 9.37074C213.988 9.37074 211.287 9.22189 209.335 5.41442C207.118 1.01154 202.526 0.392627 198.123 0.353455C187.689 0.267278 177.226 0.235941 166.763 0.196769C145.208 0.118426 123.638 -0.0539286 102.091 0.0165801C86.0215 0.0635859 70.1865 1.88898 54.7827 7.05178C45.9939 10.0626 38.3266 15.8283 32.8422 23.5508C29.3771 28.3376 26.3205 30.0768 21.191 29.5989C20.3061 29.5934 19.4224 29.6695 18.5505 29.8261C6.36975 31.0091 1.14941 36.4853 0.241524 49.0672C0.0675123 51.535 -0.17459 54.0968 0.286918 56.4784C0.52902 57.8886 2.10269 59.0324 3.0938 60.3251C3.91089 59.2753 5.36351 58.2881 5.43916 57.1913C5.84015 52.5378 5.37864 47.7902 6.19573 43.2071C6.52863 41.3504 9.13123 38.9374 11.0302 38.5535C16.5078 37.4489 22.1518 37.2609 28.6281 36.6185C22.7344 54.2221 20.4268 71.4263 19.6703 89.218L14.6391 89.735C14.3591 96.7859 13.8371 103.907 13.8825 111.036C13.9203 115.988 14.8736 120.923 15.1914 125.875C15.2743 128.517 15.1985 131.162 14.9644 133.795C14.6845 138.997 16.644 142.413 21.6449 144.019C24.5313 144.935 27.5311 145.41 30.5497 145.429C45.9233 145.656 61.3043 145.688 76.7006 145.758C82.7531 145.758 88.7527 145.758 95.456 145.758C95.456 142.687 95.3046 138.707 95.456 134.72C95.7547 129.071 97.8244 123.677 101.351 119.356C104.878 115.036 109.669 112.024 114.998 110.778C125.704 108.428 137.12 113.912 141.72 124.394C143.347 128.076 143.884 132.369 144.429 136.451C144.86 139.632 144.504 142.922 144.504 146.181ZM667.038 63.6076C656.34 63.6076 645.634 63.5606 634.929 63.6076C632.485 63.6076 631.259 63.1141 631.282 60.1919C631.403 46.4975 631.388 32.811 631.282 19.1166C631.282 16.547 632.175 15.74 634.603 15.7479C655.888 15.8105 677.168 15.8105 698.443 15.7479C699.824 15.7198 701.191 16.0378 702.428 16.6748C703.665 17.3118 704.735 18.249 705.547 19.4065C715.625 32.2469 715.73 46.3408 705.971 59.4789C705.041 60.8484 703.788 61.9479 702.331 62.6722C700.874 63.3964 699.262 63.7212 697.648 63.6155C687.442 63.5136 677.244 63.6076 667.038 63.6076ZM99.723 16.1787C100.509 16.0212 101.302 15.9061 102.099 15.834C127.671 15.834 153.243 15.834 178.815 15.7479C181.433 15.7479 181.977 16.8917 181.97 19.2811C181.902 32.717 181.834 46.1606 182.015 59.5965C182.061 63.0201 180.843 63.6703 177.854 63.6546C153.409 63.5606 128.964 63.6076 104.52 63.5998C103.339 63.5998 102.159 63.4431 100.487 63.3256C107.75 47.3436 106.888 31.8552 99.723 16.1787ZM369.637 63.5998C359.423 63.5998 349.21 63.5214 339.004 63.6546C336.325 63.6546 335.221 63.0749 335.221 59.996C335.342 46.427 335.274 32.8501 335.168 19.2576C335.168 16.8368 335.705 15.7479 338.308 15.7557C359.224 15.8393 380.156 15.8393 401.103 15.7557C403.373 15.7557 404.167 16.594 404.129 18.9678C404.054 32.6778 404.038 46.3878 404.129 60.0822C404.129 62.879 403.191 63.6546 400.604 63.6311C390.314 63.5371 379.972 63.5998 369.637 63.5998ZM443.516 63.5998C433.31 63.5998 423.089 63.5214 412.89 63.6546C410.204 63.6546 409.107 63.0749 409.107 59.996C409.229 46.427 409.16 32.8501 409.055 19.2576C409.055 16.8368 409.599 15.7479 412.194 15.7557C433.116 15.8393 454.048 15.8393 474.99 15.7557C477.259 15.7557 478.061 16.594 478.016 18.9678C477.94 32.6778 477.925 46.3878 478.016 60.0822C478.016 62.879 477.078 63.6546 474.49 63.6311C464.193 63.5371 453.859 63.5998 443.516 63.5998ZM517.403 63.5998C507.189 63.5998 496.976 63.5214 486.769 63.6546C484.084 63.6546 482.987 63.0749 482.987 59.996C483.108 46.427 483.04 32.8501 482.941 19.2576C482.941 16.8368 483.478 15.7479 486.081 15.7557C506.998 15.8393 527.929 15.8393 548.876 15.7557C551.146 15.7557 551.948 16.594 551.903 18.9678C551.827 32.6778 551.812 46.3878 551.903 60.0822C551.903 62.879 550.964 63.6546 548.377 63.6311C538.073 63.5371 527.738 63.5998 517.403 63.5998ZM591.282 63.5998C581.068 63.5998 570.855 63.5214 560.649 63.6546C557.963 63.6546 556.866 63.0749 556.866 59.996C556.994 46.427 556.926 32.8501 556.82 19.2576C556.82 16.8368 557.358 15.7479 559.96 15.7557C580.882 15.8393 601.814 15.8393 622.755 15.7557C625.025 15.7557 625.782 16.594 625.782 18.9678C625.714 32.6778 625.699 46.3878 625.782 60.0822C625.782 62.879 624.836 63.6546 622.256 63.6311C611.959 63.5371 601.617 63.5998 591.282 63.5998ZM295.902 63.5998C285.575 63.5998 275.24 63.5606 264.882 63.5998C262.703 63.5998 261.266 63.3413 261.281 60.5209C261.349 46.6934 261.327 32.8658 261.281 19.0383C261.281 16.8055 261.932 15.7087 264.307 15.7165C285.204 15.7844 306.1 15.7844 326.997 15.7165C329.607 15.7165 330.129 16.7977 330.114 19.2106C330.038 32.9128 330.023 46.6307 330.114 60.3015C330.114 62.9574 329.221 63.6155 326.823 63.592C316.564 63.5371 306.229 63.5998 295.902 63.5998ZM221.796 15.8105C232.115 15.8105 242.443 15.9045 252.755 15.7479C255.41 15.7087 256.348 16.5313 256.341 19.2733C256.275 32.9677 256.275 46.6594 256.341 60.3486C256.341 62.9809 255.304 63.639 252.944 63.6311C232.163 63.5632 211.383 63.5632 190.602 63.6311C188.386 63.6311 187.463 63.0122 187.478 60.5444C187.573 46.7247 187.573 32.9076 187.478 19.0931C187.478 16.5156 188.348 15.7479 190.814 15.7792C201.164 15.9124 211.476 15.834 221.796 15.8262V15.8105ZM44.3874 56.071C44.3874 43.9357 44.4555 31.7847 44.3345 19.6728C44.3345 16.7585 45.3104 15.6852 48.0719 15.7557C52.0969 15.8967 56.137 15.881 60.1771 15.7557C62.9915 15.6617 63.9599 16.8917 63.9145 19.712C63.854 44.2595 63.854 68.7861 63.9145 93.2918C63.9145 95.979 62.931 97.0836 60.3662 97.0288C56.4623 96.9348 52.5433 96.8094 48.6545 97.0288C45.2575 97.2325 44.3042 95.7831 44.342 92.4457C44.4555 80.3339 44.3723 68.1985 44.3874 56.071ZM68.3253 89.8447C68.0506 88.5532 67.856 87.2448 67.7428 85.9276C67.7125 63.6363 67.6974 41.3399 67.6974 19.0383C67.6974 16.7742 68.4539 15.7244 70.8069 15.8027C74.7032 15.9437 78.6374 15.5755 82.5035 15.9829C84.2133 16.1631 86.4452 17.2756 87.3304 18.7014C93.3829 28.4316 96.5152 39.3291 92.3843 50.2893C88.7754 59.8472 83.1163 68.6294 77.9262 77.4822C75.4144 81.7284 71.8736 85.3321 68.3253 89.8447Z"/>
</mask>
<path d="M144.504 146.181C178.202 143.948 211.476 145.398 244.72 145.084C277.964 144.771 538.61 144.912 571.763 144.99C575.084 144.99 575.893 143.76 575.651 140.642C574.827 130.191 577.717 121.198 586.243 114.946C593.847 109.344 602.23 108.624 610.552 112.815C619.063 117.1 623.535 124.488 624.17 134.257C624.375 137.485 624.17 140.736 624.17 143.98C624.552 144.194 624.962 144.347 625.388 144.434C642.388 143.925 659.434 143.894 676.374 142.679C686.61 141.951 696.733 139.436 706.894 137.642C711.236 136.858 715.549 135.918 719.876 135.049C727.147 133.584 729.962 129.988 729.962 122.185C729.962 116.058 729.962 109.924 729.455 103.798V119.866C726.966 119.866 724.545 120.265 722.35 119.709C721.14 119.411 719.536 117.57 719.445 116.325C719.112 111.405 719.309 106.453 719.309 101.048H729.243C729.243 95.2739 729.553 89.9387 729.19 84.6584C728.06 68.4048 726.771 52.1565 725.324 35.9134C725.014 32.4741 723.576 29.1524 722.698 25.7288C721.821 22.3052 719.869 19.5867 719.498 15.787C719.203 13.0059 715.715 10.0602 712.984 8.21126C706.969 4.15309 700.357 4.70149 693.631 6.45638C689.057 7.77644 684.349 8.53375 679.604 8.71266C646.572 8.93985 613.548 8.85367 580.493 8.93202C535.296 9.0417 262.537 9.19055 217.34 9.37074C213.988 9.37074 211.287 9.22189 209.335 5.41442C207.118 1.01154 202.526 0.392627 198.123 0.353455C187.689 0.267278 177.226 0.235941 166.763 0.196769C145.208 0.118426 123.638 -0.0539286 102.091 0.0165801C86.0215 0.0635859 70.1865 1.88898 54.7827 7.05178C45.9939 10.0626 38.3266 15.8283 32.8422 23.5508C29.3771 28.3376 26.3205 30.0768 21.191 29.5989C20.3061 29.5934 19.4224 29.6695 18.5505 29.8261C6.36975 31.0091 1.14941 36.4853 0.241524 49.0672C0.0675123 51.535 -0.17459 54.0968 0.286918 56.4784C0.52902 57.8886 2.10269 59.0324 3.0938 60.3251C3.91089 59.2753 5.36351 58.2881 5.43916 57.1913C5.84015 52.5378 5.37864 47.7902 6.19573 43.2071C6.52863 41.3504 9.13123 38.9374 11.0302 38.5535C16.5078 37.4489 22.1518 37.2609 28.6281 36.6185C22.7344 54.2221 20.4268 71.4263 19.6703 89.218L14.6391 89.735C14.3591 96.7859 13.8371 103.907 13.8825 111.036C13.9203 115.988 14.8736 120.923 15.1914 125.875C15.2743 128.517 15.1985 131.162 14.9644 133.795C14.6845 138.997 16.644 142.413 21.6449 144.019C24.5313 144.935 27.5311 145.41 30.5497 145.429C45.9233 145.656 61.3043 145.688 76.7006 145.758C82.7531 145.758 88.7527 145.758 95.456 145.758C95.456 142.687 95.3046 138.707 95.456 134.72C95.7547 129.071 97.8244 123.677 101.351 119.356C104.878 115.036 109.669 112.024 114.998 110.778C125.704 108.428 137.12 113.912 141.72 124.394C143.347 128.076 143.884 132.369 144.429 136.451C144.86 139.632 144.504 142.922 144.504 146.181ZM667.038 63.6076C656.34 63.6076 645.634 63.5606 634.929 63.6076C632.485 63.6076 631.259 63.1141 631.282 60.1919C631.403 46.4975 631.388 32.811 631.282 19.1166C631.282 16.547 632.175 15.74 634.603 15.7479C655.888 15.8105 677.168 15.8105 698.443 15.7479C699.824 15.7198 701.191 16.0378 702.428 16.6748C703.665 17.3118 704.735 18.249 705.547 19.4065C715.625 32.2469 715.73 46.3408 705.971 59.4789C705.041 60.8484 703.788 61.9479 702.331 62.6722C700.874 63.3964 699.262 63.7212 697.648 63.6155C687.442 63.5136 677.244 63.6076 667.038 63.6076ZM99.723 16.1787C100.509 16.0212 101.302 15.9061 102.099 15.834C127.671 15.834 153.243 15.834 178.815 15.7479C181.433 15.7479 181.977 16.8917 181.97 19.2811C181.902 32.717 181.834 46.1606 182.015 59.5965C182.061 63.0201 180.843 63.6703 177.854 63.6546C153.409 63.5606 128.964 63.6076 104.52 63.5998C103.339 63.5998 102.159 63.4431 100.487 63.3256C107.75 47.3436 106.888 31.8552 99.723 16.1787ZM369.637 63.5998C359.423 63.5998 349.21 63.5214 339.004 63.6546C336.325 63.6546 335.221 63.0749 335.221 59.996C335.342 46.427 335.274 32.8501 335.168 19.2576C335.168 16.8368 335.705 15.7479 338.308 15.7557C359.224 15.8393 380.156 15.8393 401.103 15.7557C403.373 15.7557 404.167 16.594 404.129 18.9678C404.054 32.6778 404.038 46.3878 404.129 60.0822C404.129 62.879 403.191 63.6546 400.604 63.6311C390.314 63.5371 379.972 63.5998 369.637 63.5998ZM443.516 63.5998C433.31 63.5998 423.089 63.5214 412.89 63.6546C410.204 63.6546 409.107 63.0749 409.107 59.996C409.229 46.427 409.16 32.8501 409.055 19.2576C409.055 16.8368 409.599 15.7479 412.194 15.7557C433.116 15.8393 454.048 15.8393 474.99 15.7557C477.259 15.7557 478.061 16.594 478.016 18.9678C477.94 32.6778 477.925 46.3878 478.016 60.0822C478.016 62.879 477.078 63.6546 474.49 63.6311C464.193 63.5371 453.859 63.5998 443.516 63.5998ZM517.403 63.5998C507.189 63.5998 496.976 63.5214 486.769 63.6546C484.084 63.6546 482.987 63.0749 482.987 59.996C483.108 46.427 483.04 32.8501 482.941 19.2576C482.941 16.8368 483.478 15.7479 486.081 15.7557C506.998 15.8393 527.929 15.8393 548.876 15.7557C551.146 15.7557 551.948 16.594 551.903 18.9678C551.827 32.6778 551.812 46.3878 551.903 60.0822C551.903 62.879 550.964 63.6546 548.377 63.6311C538.073 63.5371 527.738 63.5998 517.403 63.5998ZM591.282 63.5998C581.068 63.5998 570.855 63.5214 560.649 63.6546C557.963 63.6546 556.866 63.0749 556.866 59.996C556.994 46.427 556.926 32.8501 556.82 19.2576C556.82 16.8368 557.358 15.7479 559.96 15.7557C580.882 15.8393 601.814 15.8393 622.755 15.7557C625.025 15.7557 625.782 16.594 625.782 18.9678C625.714 32.6778 625.699 46.3878 625.782 60.0822C625.782 62.879 624.836 63.6546 622.256 63.6311C611.959 63.5371 601.617 63.5998 591.282 63.5998ZM295.902 63.5998C285.575 63.5998 275.24 63.5606 264.882 63.5998C262.703 63.5998 261.266 63.3413 261.281 60.5209C261.349 46.6934 261.327 32.8658 261.281 19.0383C261.281 16.8055 261.932 15.7087 264.307 15.7165C285.204 15.7844 306.1 15.7844 326.997 15.7165C329.607 15.7165 330.129 16.7977 330.114 19.2106C330.038 32.9128 330.023 46.6307 330.114 60.3015C330.114 62.9574 329.221 63.6155 326.823 63.592C316.564 63.5371 306.229 63.5998 295.902 63.5998ZM221.796 15.8105C232.115 15.8105 242.443 15.9045 252.755 15.7479C255.41 15.7087 256.348 16.5313 256.341 19.2733C256.275 32.9677 256.275 46.6594 256.341 60.3486C256.341 62.9809 255.304 63.639 252.944 63.6311C232.163 63.5632 211.383 63.5632 190.602 63.6311C188.386 63.6311 187.463 63.0122 187.478 60.5444C187.573 46.7247 187.573 32.9076 187.478 19.0931C187.478 16.5156 188.348 15.7479 190.814 15.7792C201.164 15.9124 211.476 15.834 221.796 15.8262V15.8105ZM44.3874 56.071C44.3874 43.9357 44.4555 31.7847 44.3345 19.6728C44.3345 16.7585 45.3104 15.6852 48.0719 15.7557C52.0969 15.8967 56.137 15.881 60.1771 15.7557C62.9915 15.6617 63.9599 16.8917 63.9145 19.712C63.854 44.2595 63.854 68.7861 63.9145 93.2918C63.9145 95.979 62.931 97.0836 60.3662 97.0288C56.4623 96.9348 52.5433 96.8094 48.6545 97.0288C45.2575 97.2325 44.3042 95.7831 44.342 92.4457C44.4555 80.3339 44.3723 68.1985 44.3874 56.071ZM68.3253 89.8447C68.0506 88.5532 67.856 87.2448 67.7428 85.9276C67.7125 63.6363 67.6974 41.3399 67.6974 19.0383C67.6974 16.7742 68.4539 15.7244 70.8069 15.8027C74.7032 15.9437 78.6374 15.5755 82.5035 15.9829C84.2133 16.1631 86.4452 17.2756 87.3304 18.7014C93.3829 28.4316 96.5152 39.3291 92.3843 50.2893C88.7754 59.8472 83.1163 68.6294 77.9262 77.4822C75.4144 81.7284 71.8736 85.3321 68.3253 89.8447Z" stroke="#2844DA" stroke-width="6" mask="url(#path-1-inside-1_188_5953)"/>
<path d="M120.186 158.101L120.178 158.101L120.17 158.101C114.499 158.145 109.033 155.855 104.977 151.716C100.919 147.576 98.6065 141.926 98.5641 136.005C98.5217 130.085 100.753 124.399 104.751 120.197C108.748 115.997 114.18 113.622 119.85 113.578C125.541 113.552 131.02 115.866 135.08 120.03C139.141 124.195 141.447 129.871 141.477 135.811C141.46 147.95 131.598 158.138 120.186 158.101ZM133.794 135.635L133.794 135.624L133.793 135.613C133.696 131.889 132.214 128.338 129.641 125.705C127.066 123.07 123.597 121.557 119.955 121.5C118.114 121.469 116.287 121.819 114.581 122.528C112.875 123.236 111.326 124.288 110.023 125.619C108.72 126.951 107.689 128.535 106.987 130.277C106.287 132.019 105.929 133.886 105.933 135.769C105.925 139.574 107.371 143.237 109.971 145.956C112.574 148.677 116.123 150.231 119.845 150.259L119.849 150.259C127.349 150.294 133.878 143.308 133.794 135.635Z" stroke="#2844DA" stroke-width="3"/>
<path d="M614.125 136.268L614.125 136.294C614.031 140.011 612.579 143.563 610.049 146.23C607.517 148.899 604.092 150.484 600.46 150.649L600.429 150.651L600.398 150.651C596.683 150.666 593.121 149.17 590.477 146.501C587.833 143.835 586.316 140.211 586.234 136.413L586.234 136.4L586.234 136.4C586.211 134.514 586.549 132.641 587.23 130.889C587.912 129.137 588.923 127.538 590.209 126.188C591.495 124.838 593.03 123.762 594.726 123.026C596.422 122.291 598.244 121.91 600.087 121.907L614.125 136.268ZM614.125 136.268L614.125 136.243M614.125 136.268L614.125 136.243M614.125 136.243C614.092 132.442 612.61 128.799 609.986 126.11C607.361 123.42 603.804 121.903 600.087 121.907L614.125 136.243ZM600.037 114.01H600.044H600.052C605.646 114.119 610.986 116.495 614.923 120.646C618.865 124.803 621.081 130.406 621.081 136.252C621.081 142.098 618.865 147.701 614.923 151.857C610.985 156.01 605.641 158.387 600.045 158.494C588.554 158.599 578.692 148.544 578.642 136.398H578.642L578.642 136.388C578.609 133.447 579.142 130.529 580.207 127.806C581.273 125.083 582.85 122.61 584.844 120.529C586.837 118.449 589.208 116.803 591.816 115.685C594.424 114.567 597.218 113.998 600.037 114.01Z" stroke="#2844DA" stroke-width="3"/>
<path d="M116.249 131.936C117.236 130.926 118.544 130.35 119.907 130.306C121.267 130.368 122.563 130.975 123.516 132.018C124.479 133.074 125.012 134.489 124.984 135.961C124.964 136.682 124.805 137.39 124.518 138.043C124.231 138.698 123.821 139.284 123.317 139.767C122.812 140.251 122.223 140.622 121.584 140.862C120.948 141.102 120.273 141.207 119.599 141.174C118.284 141.092 117.035 140.5 116.106 139.499C115.182 138.504 114.644 137.179 114.608 135.781C114.668 134.321 115.259 132.948 116.249 131.936Z" stroke="#2844DA" stroke-width="3"/>
<path d="M595.059 136.38L595.059 136.364L595.058 136.348C595.032 135.627 595.145 134.909 595.389 134.236C595.633 133.564 596.002 132.951 596.473 132.434C596.945 131.916 597.508 131.504 598.128 131.219C598.744 130.936 599.405 130.783 600.074 130.766C601.378 130.772 602.641 131.295 603.6 132.244C604.565 133.199 605.147 134.512 605.21 135.914L605.211 135.928L605.212 135.942C605.257 136.657 605.164 137.373 604.939 138.049C604.713 138.724 604.36 139.342 603.904 139.868C603.448 140.394 602.897 140.817 602.286 141.115L602.943 142.463L602.286 141.115C601.676 141.412 601.016 141.579 600.346 141.607C599.676 141.636 599.006 141.525 598.376 141.281C597.745 141.036 597.164 140.662 596.669 140.178C596.174 139.693 595.774 139.108 595.497 138.455C595.219 137.802 595.07 137.096 595.059 136.38Z" stroke="#2844DA" stroke-width="3"/>
</svg>
