<svg width="244" height="235" viewBox="0 0 244 235" fill="none" xmlns="http://www.w3.org/2000/svg">
<path d="M169.441 201.554C161.58 212.1 151.34 220.628 139.559 226.44C127.779 232.252 114.793 235.182 101.666 234.991C41.5686 234.991 -0.000976562 188.899 -0.000976562 117.504C-0.000976562 46.1088 41.5686 0.0088589 101.666 0.0088589C114.792 -0.183075 127.778 2.74624 139.558 8.5569C151.338 14.3676 161.579 22.8943 169.441 33.4388V4.53653H243.999V230.471H169.441V201.554ZM74.5571 117.504C74.5571 147.776 93.9577 168.116 121.096 168.116C147.757 168.116 167.188 147.776 167.188 117.504C167.188 87.232 147.787 66.8912 121.096 66.8912C94.0174 66.8912 74.5571 87.2245 74.5571 117.504Z" fill="#2844DA"/>
</svg>
