<svg width="218" height="235" viewBox="0 0 218 235" fill="none" xmlns="http://www.w3.org/2000/svg">
<path d="M144.452 194.781C130.373 223.22 103.991 235 72.2296 235C36.3396 235 0 214.666 0 170.375C0 76.824 140.818 118.855 140.818 75.9259C140.818 61.0102 128.552 52.875 110.847 52.875C89.9498 52.875 79.505 63.7194 79.505 83.1556H6.82583C6.78088 23.051 59.9266 0 114.436 0C168.488 0 218 21.2398 218 77.2806V230.51H144.452V194.781ZM100.387 183.48C124.012 183.48 142.181 169.926 142.181 143.709V130.156C116.249 143.694 75.3691 139.204 75.3691 163.153C75.3691 176.707 86.728 183.487 100.35 183.487L100.387 183.48Z" fill="#2844DA"/>
</svg>
