<svg width="1395" height="256" viewBox="0 0 1395 256" fill="none" xmlns="http://www.w3.org/2000/svg">
<rect width="1395" height="425" rx="82" fill="#2844DA"/>
<path fill-rule="evenodd" clip-rule="evenodd" d="M1106.2 158.674H1100.85V181.585H1093V129.457H1100.85V150.336H1106.2V129.457H1114.05V181.585H1106.2V158.674Z" fill="white"/>
<path fill-rule="evenodd" clip-rule="evenodd" d="M1127.82 182.271H1126.27C1119.94 182.271 1116.57 178.833 1116.57 172.375V161.917H1124.44V171.042C1124.44 173.428 1125.22 174.691 1127.05 174.691C1128.94 174.691 1129.65 173.428 1129.65 170.199V169.006C1129.65 165.287 1129.29 163.953 1126.41 160.234L1121.35 153.776C1117.98 149.424 1116.99 146.055 1116.99 140.861V139.177C1116.99 132.228 1120.51 129 1126.76 129H1128.24C1134.78 129 1137.31 131.877 1137.31 138.054V146.617H1129.65V139.107C1129.65 137.352 1129.29 136.018 1127.4 136.018C1125.5 136.018 1125.08 137.212 1125.08 139.668V140.651C1125.08 143.6 1125.64 145.213 1128.31 148.652L1133.37 155.18C1136.96 159.812 1138.08 162.48 1138.08 168.375V170.061C1138.08 177.709 1134.78 182.271 1127.82 182.271Z" fill="white"/>
<path fill-rule="evenodd" clip-rule="evenodd" d="M1158.49 129.457V137.023H1148.46V150.687H1156.33V158.604H1148.46V173.668H1158.91V181.585H1140.6V129.457H1158.49Z" fill="white"/>
<path fill-rule="evenodd" clip-rule="evenodd" d="M1179.45 164L1177.32 144.731L1175.25 164H1179.45ZM1180.3 171.775H1174.47L1173.41 181.585H1166.23L1172.7 129.457H1182.22L1189.11 181.585H1181.37L1180.3 171.775Z" fill="white"/>
<path fill-rule="evenodd" clip-rule="evenodd" d="M1198.26 150.896H1200.38C1202.58 150.896 1203.29 149.495 1203.29 147.183V139.896C1203.29 137.654 1202.79 136.533 1200.38 136.533H1198.26V150.896ZM1198.26 181.585H1190.26V129.457H1203.22C1208.53 129.457 1211.22 131.699 1211.22 137.514V146.762C1211.22 151.107 1209.16 152.788 1207.75 153.419C1209.52 154.189 1211.22 155.591 1211.22 159.094V177.381C1211.22 179.483 1211.64 180.463 1212 181.233V181.585H1204.06C1203.71 181.024 1203.29 180.114 1203.29 177.311V161.617C1203.29 159.304 1202.86 158.323 1200.31 158.323H1198.26V181.585Z" fill="white"/>
<path fill-rule="evenodd" clip-rule="evenodd" d="M1226.88 137.023V181.585H1219.08V137.023H1212.45V129.457H1233.51V137.023H1226.88Z" fill="white"/>
<path fill-rule="evenodd" clip-rule="evenodd" d="M1251.76 164L1249.63 144.731L1247.57 164H1251.76ZM1252.61 171.775H1246.79L1245.72 181.585H1238.54L1245.01 129.457H1254.53L1261.43 181.585H1253.68L1252.61 171.775Z" fill="white"/>
<path fill-rule="evenodd" clip-rule="evenodd" d="M1269.91 129.457L1276.67 157.412V129.457H1283.85V181.585H1277.44L1269.91 151.597V181.585H1262.8V129.457H1269.91Z" fill="white"/>
<path fill-rule="evenodd" clip-rule="evenodd" d="M1294.99 174.017H1296.88C1299.27 174.017 1299.97 172.757 1299.97 169.955V140.597C1299.97 137.584 1299.2 136.533 1297.23 136.533H1294.99V174.017ZM1287.06 129.457H1299.2C1306 129.457 1308.11 133.31 1308.11 139.476V171.215C1308.11 177.591 1305.72 181.585 1299.2 181.585H1287.06V129.457Z" fill="white"/>
<path fill-rule="evenodd" clip-rule="evenodd" d="M1100.93 227.747H1102.82C1105.21 227.747 1105.91 226.486 1105.91 223.684V194.326C1105.91 191.314 1105.14 190.262 1103.18 190.262H1100.93V227.747ZM1093 183.186H1105.14C1111.95 183.186 1114.05 187.039 1114.05 193.204V224.945C1114.05 231.32 1111.67 235.314 1105.14 235.314H1093V183.186Z" fill="white"/>
<path fill-rule="evenodd" clip-rule="evenodd" d="M1134.92 183.186V190.753H1124.89V204.415H1132.76V212.333H1124.89V227.398H1135.34V235.314H1117.03V183.186H1134.92Z" fill="white"/>
<path fill-rule="evenodd" clip-rule="evenodd" d="M1148.19 236H1146.64C1140.31 236 1136.94 232.561 1136.94 226.103V215.646H1144.81V224.77C1144.81 227.156 1145.58 228.42 1147.41 228.42C1149.31 228.42 1150.01 227.156 1150.01 223.928V222.735C1150.01 219.015 1149.66 217.682 1146.78 213.962L1141.72 207.504C1138.34 203.153 1137.36 199.785 1137.36 194.592V192.906C1137.36 185.958 1140.87 182.729 1147.13 182.729H1148.61C1155.14 182.729 1157.68 185.608 1157.68 191.783V200.347H1150.01V192.836C1150.01 191.081 1149.66 189.748 1147.76 189.748C1145.87 189.748 1145.44 190.941 1145.44 193.397V194.38C1145.44 197.328 1146.01 198.943 1148.68 202.381L1153.74 208.908C1157.32 213.541 1158.45 216.208 1158.45 222.104V223.789C1158.45 231.437 1155.14 236 1148.19 236Z" fill="white"/>
<mask id="mask0_142_2" style="mask-type:alpha" maskUnits="userSpaceOnUse" x="1160" y="182" width="33" height="54">
<path d="M1160.54 182.751H1192.65V235.952H1160.54V182.751Z" fill="white"/>
</mask>
<g mask="url(#mask0_142_2)">
<path fill-rule="evenodd" clip-rule="evenodd" d="M1160.54 235.301H1168.55V183.242H1160.54V235.301Z" fill="white"/>
<path fill-rule="evenodd" clip-rule="evenodd" d="M1178.97 236C1174.29 236 1171.31 231.873 1171.31 226.485V193.947C1171.31 188.14 1173.58 182.751 1181.16 182.751H1182.72C1191.3 182.751 1192.29 188.279 1192.29 194.437V199.756H1184.5V193.877C1184.5 191.568 1183.93 190.309 1181.94 190.309C1180.24 190.309 1179.46 191.568 1179.46 193.877V224.316C1179.46 226.764 1180.46 228.024 1182.09 228.024C1184.14 228.024 1185.06 226.625 1185.06 224.665V211.65H1181.45V203.673H1192.65V235.3H1188.11C1188.04 235.02 1187.4 232.432 1186.76 230.193C1186.2 231.943 1183.5 236 1179.46 236H1178.97Z" fill="white"/>
</g>
<path fill-rule="evenodd" clip-rule="evenodd" d="M1202.4 183.186L1209.17 211.141V183.186H1216.34V235.314H1209.93L1202.4 205.325V235.314H1195.29V183.186H1202.4Z" fill="white"/>
<path fill-rule="evenodd" clip-rule="evenodd" d="M1237.2 236H1235.66C1229.33 236 1225.96 232.561 1225.96 226.103V215.646H1233.83V224.77C1233.83 227.156 1234.6 228.42 1236.43 228.42C1238.33 228.42 1239.03 227.156 1239.03 223.928V222.735C1239.03 219.015 1238.68 217.682 1235.8 213.962L1230.74 207.504C1227.36 203.153 1226.38 199.785 1226.38 194.592V192.906C1226.38 185.958 1229.89 182.729 1236.15 182.729H1237.63C1244.16 182.729 1246.69 185.608 1246.69 191.783V200.347H1239.03V192.836C1239.03 191.081 1238.68 189.748 1236.78 189.748C1234.88 189.748 1234.46 190.941 1234.46 193.397V194.38C1234.46 197.328 1235.02 198.943 1237.7 202.381L1242.76 208.908C1246.34 213.541 1247.47 216.208 1247.47 222.104V223.789C1247.47 231.437 1244.16 236 1237.2 236Z" fill="white"/>
<path fill-rule="evenodd" clip-rule="evenodd" d="M1262.62 224.785V212.659H1270.35V224.715C1270.35 230.324 1268.54 236 1260.95 236H1259.21C1251.27 236 1249.53 230.253 1249.53 224.996V193.173C1249.53 187.847 1251.82 182.729 1258.93 182.729H1260.74C1269.38 182.729 1270.35 188.477 1270.35 193.594V202.915H1262.62V193.734C1262.62 191.491 1261.92 190.299 1259.97 190.299C1258.02 190.299 1257.54 191.422 1257.54 193.734V224.715C1257.54 227.028 1258.3 228.289 1260.04 228.289C1261.92 228.289 1262.62 226.888 1262.62 224.785Z" fill="white"/>
<path fill-rule="evenodd" clip-rule="evenodd" d="M1286.07 212.403H1280.72V235.314H1272.87V183.186H1280.72V204.065H1286.07V183.186H1293.92V235.314H1286.07V212.403Z" fill="white"/>
<path fill-rule="evenodd" clip-rule="evenodd" d="M1310.55 194.295C1310.55 191.561 1309.63 190.299 1307.8 190.299C1305.76 190.299 1304.99 191.632 1304.99 194.295V224.295C1304.99 226.538 1305.62 228.289 1307.87 228.289C1309.98 228.289 1310.55 226.538 1310.55 224.295V194.295ZM1318.64 223.735C1318.64 231.023 1316.17 236 1308.51 236H1307.17C1299.57 236 1296.9 231.023 1296.9 223.735V194.715C1296.9 187.496 1299.64 182.729 1307.1 182.729H1308.43C1316.17 182.729 1318.64 187.496 1318.64 194.645V223.735Z" fill="white"/>
<path fill-rule="evenodd" clip-rule="evenodd" d="M1334.57 194.295C1334.57 191.561 1333.66 190.299 1331.83 190.299C1329.79 190.299 1329.02 191.632 1329.02 194.295V224.295C1329.02 226.538 1329.65 228.289 1331.9 228.289C1334.01 228.289 1334.57 226.538 1334.57 224.295V194.295ZM1342.66 223.735C1342.66 231.023 1340.2 236 1332.53 236H1331.2C1323.6 236 1320.92 231.023 1320.92 223.735V194.715C1320.92 187.496 1323.67 182.729 1331.13 182.729H1332.46C1340.2 182.729 1342.66 187.496 1342.66 194.645V223.735Z" fill="white"/>
<path fill-rule="evenodd" clip-rule="evenodd" d="M1353.57 183.186V227.257H1363.26V235.314H1345.64V183.186H1353.57Z" fill="white"/>
</svg>
