<svg width="1239" height="380" viewBox="0 0 1239 380" fill="none" xmlns="http://www.w3.org/2000/svg">
<path d="M918.722 305.486C920.929 305.532 923.105 306.018 925.123 306.916C927.14 307.813 928.959 309.104 930.473 310.712C931.987 312.321 933.165 314.216 933.939 316.285C934.713 318.355 935.068 320.558 934.982 322.767C934.947 324.966 934.474 327.136 933.588 329.149C932.703 331.163 931.424 332.978 929.827 334.489C928.23 336 926.346 337.175 924.288 337.946C922.23 338.718 920.039 339.069 917.843 338.979C915.647 338.889 913.492 338.36 911.504 337.424C909.515 336.487 907.734 335.162 906.265 333.525C904.797 331.889 903.67 329.975 902.952 327.897C902.233 325.818 901.938 323.616 902.083 321.421C902.282 317.135 904.121 313.089 907.218 310.123C910.316 307.156 914.435 305.496 918.722 305.486Z" fill="#2844DA"/>
<path d="M918.792 265.018C926.369 264.99 933.877 266.469 940.878 269.369C947.879 272.27 954.233 276.533 959.57 281.912C964.907 287.291 969.121 293.677 971.966 300.699C974.812 307.722 976.232 315.24 976.144 322.816C976.011 354.055 949.751 380.14 918.735 379.856C903.504 379.856 888.897 373.807 878.127 363.039C867.357 352.27 861.307 337.666 861.307 322.437C861.307 307.209 867.357 292.604 878.127 281.836C888.897 271.067 903.504 265.018 918.735 265.018H918.792ZM918.678 291.388C910.393 291.358 902.432 294.609 896.538 300.431C890.644 306.253 887.296 314.172 887.226 322.456C887.439 330.565 890.718 338.292 896.404 344.078C902.09 349.865 909.758 353.281 917.863 353.638C926.139 353.67 934.098 350.452 940.026 344.677C945.954 338.903 949.378 331.032 949.561 322.759C949.616 318.666 948.859 314.602 947.332 310.803C945.806 307.004 943.541 303.546 940.669 300.628C937.797 297.71 934.374 295.391 930.599 293.805C926.824 292.219 922.772 291.398 918.678 291.388Z" fill="#2844DA"/>
<mask id="path-3-inside-1_188_6032" fill="white">
<path d="M356.092 346C439 346 521.493 346.052 603.493 345.306C685.494 344.56 766.935 344.952 848.786 345.082C856.977 345.082 858.974 342.155 858.377 334.734C856.343 309.86 863.47 288.454 884.497 273.575C903.155 260.243 923.828 258.528 944.482 268.559C965.472 278.759 976.499 296.342 978.066 319.593C978.57 327.275 978.066 335.013 978.066 342.733C979.007 343.243 980.02 343.607 981.07 343.814C1022.99 342.602 1065.03 342.527 1106.8 339.637C1132.05 337.903 1157.01 331.918 1182.07 327.648C1192.78 325.784 1203.41 323.546 1214.09 321.476C1232.03 317.99 1238.98 309.524 1238.98 290.878C1238.98 276.297 1238.98 261.698 1237.73 247.116V285.285C1231.59 285.285 1225.62 286.236 1220.21 284.912C1217.22 284.203 1213.27 279.821 1213.06 276.857C1212.22 265.147 1212.71 253.363 1212.71 240.497H1237.11C1237.11 226.68 1237.97 213.983 1237.11 201.378C1234.31 162.719 1231.12 124.06 1227.54 85.4004C1226.77 77.2149 1223.23 69.309 1221.06 61.1608C1218.9 53.0125 1213.99 46.6169 1212.99 37.5737C1212.26 30.9544 1203.66 23.9435 1196.92 19.5431C1182.18 9.8845 1165.87 11.1897 1149.29 15.3664C1138.01 18.5082 1126.4 20.3106 1114.7 20.7364C1033.26 21.2772 951.796 21.072 870.28 21.2585C758.819 21.5196 647.37 21.8676 535.934 22.3027C527.65 22.3027 520.914 21.9484 516.175 12.8865C510.708 2.40749 499.383 0.934465 488.543 0.841235C462.814 0.63613 436.992 0.561547 411.188 0.468317C358.032 0.281858 304.839 -0.128352 251.702 0.0394612C212.091 0.151337 173.022 4.49584 135.054 16.8208C113.38 23.9865 94.4714 37.7093 80.9464 56.0891C72.4011 67.4817 64.8447 71.6211 52.1948 70.4837C50.0188 70.4707 47.8458 70.6517 45.7019 71.0244C15.6443 73.84 2.78906 86.8735 0.531494 116.819C0.120972 122.692 -0.476074 128.789 0.643433 134.458C1.31506 137.814 5.19604 140.536 7.62158 143.538C9.6366 141.04 13.2189 138.69 13.4054 136.08C14.3943 125.004 13.2561 113.705 15.2711 102.797C16.1107 98.378 22.5104 92.635 27.1935 91.7214C40.7017 89.0923 54.6204 88.6448 70.5914 87.1159C56.057 129.144 50.3104 170.09 48.4819 212.435L36.0746 213.666C35.403 230.447 34.0968 247.396 34.2087 264.364C34.302 276.148 36.653 287.895 37.4365 299.679C37.641 305.968 37.4541 312.264 36.8768 318.53C36.1865 330.911 41.0188 339.041 53.3516 342.863C60.4698 345.041 67.8676 346.172 75.3118 346.219C113.243 346.76 151.174 346.835 189.124 347.003C204.05 347.003 218.827 347.003 235.358 347.003C235.358 339.693 235.003 330.221 235.358 320.73C236.082 307.286 241.177 294.445 249.868 284.158C258.559 273.87 270.372 266.698 283.513 263.73C309.933 258.136 338.069 271.188 349.431 296.137C353.424 304.9 354.767 315.118 356.092 324.833C357.174 332.328 356.092 338.243 356.092 346ZM1097.81 151.388C1071.41 151.388 1045.01 151.276 1018.63 151.388C1012.6 151.388 1009.58 150.214 1009.63 143.259C1009.93 110.666 1009.9 78.0912 1009.63 45.4982C1009.63 39.3823 1011.82 37.4618 1017.81 37.4804C1070.28 37.6296 1122.77 37.6296 1175.26 37.4804C1178.67 37.4151 1182.04 38.1727 1185.09 39.6887C1188.14 41.2047 1190.78 43.4344 1192.78 46.1881C1217.71 76.842 1217.95 110.386 1193.9 141.711C1191.6 144.987 1188.49 147.615 1184.87 149.339C1181.26 151.064 1177.26 151.828 1173.26 151.556C1148.11 151.165 1122.96 151.388 1097.81 151.388ZM245.862 38.506C247.799 38.1323 249.755 37.8584 251.721 37.6856C314.784 37.6856 377.847 37.6856 440.91 37.4804C447.365 37.4804 448.709 40.2028 448.69 45.8898C448.541 77.8675 448.354 109.864 448.802 141.842C448.914 149.99 445.91 151.537 438.54 151.5C378.257 151.276 317.974 151.388 257.691 151.37C254.78 151.37 251.87 150.997 247.765 150.717C265.658 112.679 263.531 75.8164 245.862 38.506ZM911.495 151.37C886.326 151.37 861.119 151.183 835.969 151.5C829.345 151.5 826.64 150.12 826.64 142.793C826.938 110.498 826.77 78.1845 826.509 45.8338C826.509 40.0722 827.853 37.4804 834.252 37.4991C885.835 37.698 937.454 37.698 989.111 37.4991C994.709 37.4991 996.686 39.4942 996.574 45.1439C996.388 77.7743 996.35 110.405 996.574 142.998C996.574 149.654 994.261 151.5 987.88 151.444C962.487 151.22 937 151.37 911.495 151.37ZM729.657 151.37C704.189 151.37 678.703 151.276 653.16 151.37C647.787 151.37 644.242 150.754 644.279 144.042C644.447 111.132 644.391 78.2218 644.279 45.3117C644.279 39.9976 645.884 37.3872 651.742 37.4059C703.275 37.5675 754.801 37.5675 806.322 37.4059C812.758 37.4059 814.046 39.979 814.027 45.7219C813.822 78.3336 813.785 110.983 814.027 143.52C814.027 149.841 811.844 151.407 805.93 151.351C780.611 151.22 755.143 151.37 729.62 151.37H729.657ZM546.904 37.6296C572.372 37.6296 597.821 37.8534 623.271 37.4804C629.801 37.3872 632.133 39.345 632.096 45.8711C631.922 78.4642 631.922 111.051 632.096 143.632C632.096 149.897 629.54 151.463 623.718 151.444C572.459 151.283 521.213 151.283 469.979 151.444C464.512 151.444 462.236 149.971 462.292 144.098C462.516 111.206 462.516 78.3212 462.292 45.4423C462.292 39.3077 464.456 37.4804 470.538 37.555C496.025 37.872 521.474 37.6856 546.904 37.6669V37.6296ZM117.612 133.451C117.612 104.568 117.78 75.6486 117.5 46.8221C117.5 39.8858 119.888 37.3313 126.717 37.4991C136.643 37.8347 138.394 37.7974 148.357 37.4991C155.279 37.2753 157.574 40.2028 157.555 46.9153C157.406 105.339 157.406 163.713 157.555 222.038C157.555 228.433 155.111 231.062 148.786 230.932C139.158 230.708 137.706 230.41 128.116 230.932C119.739 231.417 117.407 227.967 117.5 220.024C117.799 191.197 117.593 162.315 117.612 133.451ZM176.548 213.833C175.88 210.758 175.401 207.644 175.112 204.51C175.037 151.457 175 98.4091 175 45.3677C175 39.979 176.866 37.4804 182.668 37.6669C192.296 38.0025 201.979 37.1262 211.513 38.0958C215.73 38.5246 221.234 41.1723 223.417 44.5659C238.343 67.7241 246.067 93.6606 235.88 119.746C226.98 142.494 213.024 163.396 200.207 184.466C194.031 194.516 185.318 203.093 176.548 213.833Z"/>
</mask>
<path d="M356.092 346C439 346 521.493 346.052 603.493 345.306C685.494 344.56 766.935 344.952 848.786 345.082C856.977 345.082 858.974 342.155 858.377 334.734C856.343 309.86 863.47 288.454 884.497 273.575C903.155 260.243 923.828 258.528 944.482 268.559C965.472 278.759 976.499 296.342 978.066 319.593C978.57 327.275 978.066 335.013 978.066 342.733C979.007 343.243 980.02 343.607 981.07 343.814C1022.99 342.602 1065.03 342.527 1106.8 339.637C1132.05 337.903 1157.01 331.918 1182.07 327.648C1192.78 325.784 1203.41 323.546 1214.09 321.476C1232.03 317.99 1238.98 309.524 1238.98 290.878C1238.98 276.297 1238.98 261.698 1237.73 247.116V285.285C1231.59 285.285 1225.62 286.236 1220.21 284.912C1217.22 284.203 1213.27 279.821 1213.06 276.857C1212.22 265.147 1212.71 253.363 1212.71 240.497H1237.11C1237.11 226.68 1237.97 213.983 1237.11 201.378C1234.31 162.719 1231.12 124.06 1227.54 85.4004C1226.77 77.2149 1223.23 69.309 1221.06 61.1608C1218.9 53.0125 1213.99 46.6169 1212.99 37.5737C1212.26 30.9544 1203.66 23.9435 1196.92 19.5431C1182.18 9.8845 1165.87 11.1897 1149.29 15.3664C1138.01 18.5082 1126.4 20.3106 1114.7 20.7364C1033.26 21.2772 951.796 21.072 870.28 21.2585C758.819 21.5196 647.37 21.8676 535.934 22.3027C527.65 22.3027 520.914 21.9484 516.175 12.8865C510.708 2.40749 499.383 0.934465 488.543 0.841235C462.814 0.63613 436.992 0.561547 411.188 0.468317C358.032 0.281858 304.839 -0.128352 251.702 0.0394612C212.091 0.151337 173.022 4.49584 135.054 16.8208C113.38 23.9865 94.4714 37.7093 80.9464 56.0891C72.4011 67.4817 64.8447 71.6211 52.1948 70.4837C50.0188 70.4707 47.8458 70.6517 45.7019 71.0244C15.6443 73.84 2.78906 86.8735 0.531494 116.819C0.120972 122.692 -0.476074 128.789 0.643433 134.458C1.31506 137.814 5.19604 140.536 7.62158 143.538C9.6366 141.04 13.2189 138.69 13.4054 136.08C14.3943 125.004 13.2561 113.705 15.2711 102.797C16.1107 98.378 22.5104 92.635 27.1935 91.7214C40.7017 89.0923 54.6204 88.6448 70.5914 87.1159C56.057 129.144 50.3104 170.09 48.4819 212.435L36.0746 213.666C35.403 230.447 34.0968 247.396 34.2087 264.364C34.302 276.148 36.653 287.895 37.4365 299.679C37.641 305.968 37.4541 312.264 36.8768 318.53C36.1865 330.911 41.0188 339.041 53.3516 342.863C60.4698 345.041 67.8676 346.172 75.3118 346.219C113.243 346.76 151.174 346.835 189.124 347.003C204.05 347.003 218.827 347.003 235.358 347.003C235.358 339.693 235.003 330.221 235.358 320.73C236.082 307.286 241.177 294.445 249.868 284.158C258.559 273.87 270.372 266.698 283.513 263.73C309.933 258.136 338.069 271.188 349.431 296.137C353.424 304.9 354.767 315.118 356.092 324.833C357.174 332.328 356.092 338.243 356.092 346ZM1097.81 151.388C1071.41 151.388 1045.01 151.276 1018.63 151.388C1012.6 151.388 1009.58 150.214 1009.63 143.259C1009.93 110.666 1009.9 78.0912 1009.63 45.4982C1009.63 39.3823 1011.82 37.4618 1017.81 37.4804C1070.28 37.6296 1122.77 37.6296 1175.26 37.4804C1178.67 37.4151 1182.04 38.1727 1185.09 39.6887C1188.14 41.2047 1190.78 43.4344 1192.78 46.1881C1217.71 76.842 1217.95 110.386 1193.9 141.711C1191.6 144.987 1188.49 147.615 1184.87 149.339C1181.26 151.064 1177.26 151.828 1173.26 151.556C1148.11 151.165 1122.96 151.388 1097.81 151.388ZM245.862 38.506C247.799 38.1323 249.755 37.8584 251.721 37.6856C314.784 37.6856 377.847 37.6856 440.91 37.4804C447.365 37.4804 448.709 40.2028 448.69 45.8898C448.541 77.8675 448.354 109.864 448.802 141.842C448.914 149.99 445.91 151.537 438.54 151.5C378.257 151.276 317.974 151.388 257.691 151.37C254.78 151.37 251.87 150.997 247.765 150.717C265.658 112.679 263.531 75.8164 245.862 38.506ZM911.495 151.37C886.326 151.37 861.119 151.183 835.969 151.5C829.345 151.5 826.64 150.12 826.64 142.793C826.938 110.498 826.77 78.1845 826.509 45.8338C826.509 40.0722 827.853 37.4804 834.252 37.4991C885.835 37.698 937.454 37.698 989.111 37.4991C994.709 37.4991 996.686 39.4942 996.574 45.1439C996.388 77.7743 996.35 110.405 996.574 142.998C996.574 149.654 994.261 151.5 987.88 151.444C962.487 151.22 937 151.37 911.495 151.37ZM729.657 151.37C704.189 151.37 678.703 151.276 653.16 151.37C647.787 151.37 644.242 150.754 644.279 144.042C644.447 111.132 644.391 78.2218 644.279 45.3117C644.279 39.9976 645.884 37.3872 651.742 37.4059C703.275 37.5675 754.801 37.5675 806.322 37.4059C812.758 37.4059 814.046 39.979 814.027 45.7219C813.822 78.3336 813.785 110.983 814.027 143.52C814.027 149.841 811.844 151.407 805.93 151.351C780.611 151.22 755.143 151.37 729.62 151.37H729.657ZM546.904 37.6296C572.372 37.6296 597.821 37.8534 623.271 37.4804C629.801 37.3872 632.133 39.345 632.096 45.8711C631.922 78.4642 631.922 111.051 632.096 143.632C632.096 149.897 629.54 151.463 623.718 151.444C572.459 151.283 521.213 151.283 469.979 151.444C464.512 151.444 462.236 149.971 462.292 144.098C462.516 111.206 462.516 78.3212 462.292 45.4423C462.292 39.3077 464.456 37.4804 470.538 37.555C496.025 37.872 521.474 37.6856 546.904 37.6669V37.6296ZM117.612 133.451C117.612 104.568 117.78 75.6486 117.5 46.8221C117.5 39.8858 119.888 37.3313 126.717 37.4991C136.643 37.8347 138.394 37.7974 148.357 37.4991C155.279 37.2753 157.574 40.2028 157.555 46.9153C157.406 105.339 157.406 163.713 157.555 222.038C157.555 228.433 155.111 231.062 148.786 230.932C139.158 230.708 137.706 230.41 128.116 230.932C119.739 231.417 117.407 227.967 117.5 220.024C117.799 191.197 117.593 162.315 117.612 133.451ZM176.548 213.833C175.88 210.758 175.401 207.644 175.112 204.51C175.037 151.457 175 98.4091 175 45.3677C175 39.979 176.866 37.4804 182.668 37.6669C192.296 38.0025 201.979 37.1262 211.513 38.0958C215.73 38.5246 221.234 41.1723 223.417 44.5659C238.343 67.7241 246.067 93.6606 235.88 119.746C226.98 142.494 213.024 163.396 200.207 184.466C194.031 194.516 185.318 203.093 176.548 213.833Z" stroke="#2844DA" stroke-width="10" mask="url(#path-3-inside-1_188_6032)"/>
<path d="M296.301 378.357L296.309 378.357L296.317 378.357C325.825 378.447 350.989 353.127 351.047 323.232C350.969 308.58 345.073 294.558 334.654 284.248C324.235 273.938 310.145 268.184 295.482 268.251C280.872 268.359 266.904 274.264 256.65 284.664C246.395 295.065 240.695 309.111 240.804 323.712C240.912 338.313 246.82 352.273 257.228 362.521C267.635 372.769 281.691 378.465 296.301 378.357ZM327.683 322.816L327.683 322.828L327.683 322.839C327.879 340.088 312.645 355.629 295.522 355.551L295.52 355.551C286.958 355.499 278.766 352.058 272.737 345.982C266.709 339.907 263.336 331.692 263.356 323.136C263.345 318.907 264.178 314.719 265.806 310.816C267.434 306.911 269.825 303.371 272.839 300.401C275.853 297.431 279.429 295.091 283.358 293.519C287.286 291.947 291.489 291.173 295.72 291.243C304.095 291.367 312.097 294.721 318.054 300.605C324.011 306.49 327.462 314.448 327.683 322.816Z" stroke="#2844DA" stroke-width="3"/>
<path d="M306.196 312.832C303.446 309.926 299.667 308.213 295.668 308.06C291.68 308.164 287.881 309.781 285.042 312.583C282.203 315.386 280.538 319.164 280.386 323.148C280.471 326.981 281.995 330.643 284.657 333.406C287.326 336.178 290.943 337.842 294.786 338.065C296.761 338.159 298.735 337.86 300.592 337.183C302.452 336.506 304.157 335.465 305.609 334.121C307.061 332.778 308.231 331.158 309.049 329.357C309.866 327.558 310.316 325.614 310.373 323.64C310.454 319.629 308.954 315.747 306.196 312.832Z" stroke="#2844DA" stroke-width="3"/>
</svg>
