<svg width="151" height="339" viewBox="0 0 151 339" fill="none" xmlns="http://www.w3.org/2000/svg">
<path d="M109.15 339H42.1V93.3H109.15V339ZM0.25 30.3C0.25 19.8 3.25 12.3 9.25 7.79997C15.25 2.99998 22.45 0.599985 30.85 0.599985C39.25 0.599985 46.45 2.99998 52.45 7.79997C58.75 12.3 61.9 19.8 61.9 30.3C61.9 40.2 58.75 47.55 52.45 52.35C46.45 57.15 39.25 59.55 30.85 59.55C22.45 59.55 15.25 57.15 9.25 52.35C3.25 47.55 0.25 40.2 0.25 30.3ZM88.9 30.3C88.9 19.8 91.9 12.3 97.9 7.79997C103.9 2.99998 111.25 0.599985 119.95 0.599985C128.35 0.599985 135.55 2.99998 141.55 7.79997C147.85 12.3 151 19.8 151 30.3C151 40.2 147.85 47.55 141.55 52.35C135.55 57.15 128.35 59.55 119.95 59.55C111.55 59.55 104.2 57.15 97.9 52.35C91.9 47.55 88.9 40.2 88.9 30.3Z" fill="#2844DA"/>
</svg>
